<svg width="88" height="16" viewBox="0 0 88 16" fill="none" xmlns="http://www.w3.org/2000/svg">
<g id="Mingla med">
<path d="M0 0.664773H3.03409L6.23864 8.48295H6.375L9.57955 0.664773H12.6136V12.3011H10.2273V4.72727H10.1307L7.11932 12.2443H5.49432L2.48295 4.69886H2.38636V12.3011H0V0.664773Z" fill="black"/>
<path d="M14.5952 12.3011V3.57386H17.0156V12.3011H14.5952ZM15.8111 2.44886C15.4512 2.44886 15.1425 2.32955 14.8849 2.09091C14.6312 1.84848 14.5043 1.55871 14.5043 1.22159C14.5043 0.888258 14.6312 0.602273 14.8849 0.363637C15.1425 0.121212 15.4512 0 15.8111 0C16.1709 0 16.4777 0.121212 16.7315 0.363637C16.9891 0.602273 17.1179 0.888258 17.1179 1.22159C17.1179 1.55871 16.9891 1.84848 16.7315 2.09091C16.4777 2.32955 16.1709 2.44886 15.8111 2.44886Z" fill="black"/>
<path d="M21.375 7.25568V12.3011H18.9545V3.57386H21.2614V5.11364H21.3636C21.5568 4.60606 21.8807 4.20455 22.3352 3.90909C22.7898 3.60985 23.3409 3.46023 23.9886 3.46023C24.5947 3.46023 25.1231 3.5928 25.5739 3.85795C26.0246 4.12311 26.375 4.50189 26.625 4.99432C26.875 5.48295 27 6.06629 27 6.74432V12.3011H24.5795V7.17614C24.5833 6.64205 24.447 6.22538 24.1705 5.92614C23.8939 5.62311 23.5133 5.47159 23.0284 5.47159C22.7027 5.47159 22.4148 5.54167 22.1648 5.68182C21.9186 5.82197 21.7254 6.02652 21.5852 6.29545C21.4489 6.56061 21.3788 6.88068 21.375 7.25568Z" fill="black"/>
<path d="M32.8395 15.7557C32.0554 15.7557 31.383 15.6477 30.8224 15.4318C30.2656 15.2197 29.8224 14.9299 29.4929 14.5625C29.1634 14.1951 28.9493 13.7822 28.8509 13.3239L31.0895 13.0227C31.1577 13.197 31.2656 13.3598 31.4134 13.5114C31.5611 13.6629 31.7562 13.7841 31.9986 13.875C32.2448 13.9697 32.544 14.017 32.8963 14.017C33.4228 14.017 33.8565 13.8883 34.1974 13.6307C34.5421 13.3769 34.7145 12.9508 34.7145 12.3523V10.7557H34.6122C34.5062 10.9981 34.3471 11.2273 34.1349 11.4432C33.9228 11.6591 33.6501 11.8352 33.3168 11.9716C32.9834 12.108 32.5857 12.1761 32.1236 12.1761C31.4683 12.1761 30.8717 12.0246 30.3338 11.7216C29.7997 11.4148 29.3736 10.947 29.0554 10.3182C28.741 9.68561 28.5838 8.88636 28.5838 7.92045C28.5838 6.93182 28.7448 6.10606 29.0668 5.44318C29.3887 4.7803 29.8168 4.28409 30.3509 3.95455C30.8887 3.625 31.4777 3.46023 32.1179 3.46023C32.6065 3.46023 33.0156 3.54356 33.3452 3.71023C33.6747 3.87311 33.9399 4.07765 34.1406 4.32386C34.3452 4.56629 34.5024 4.80492 34.6122 5.03977H34.7031V3.57386H37.1065V12.3864C37.1065 13.1288 36.9247 13.75 36.5611 14.25C36.1974 14.75 35.6937 15.125 35.0497 15.375C34.4096 15.6288 33.6728 15.7557 32.8395 15.7557ZM32.8906 10.358C33.2808 10.358 33.6103 10.2614 33.8793 10.0682C34.152 9.87121 34.3603 9.59091 34.5043 9.22727C34.652 8.85985 34.7259 8.42045 34.7259 7.90909C34.7259 7.39773 34.6539 6.95455 34.5099 6.57955C34.366 6.20076 34.1577 5.9072 33.8849 5.69886C33.6122 5.49053 33.2808 5.38636 32.8906 5.38636C32.4929 5.38636 32.1577 5.49432 31.8849 5.71023C31.6122 5.92235 31.4058 6.2178 31.2656 6.59659C31.1255 6.97538 31.0554 7.41288 31.0554 7.90909C31.0554 8.41288 31.1255 8.84849 31.2656 9.21591C31.4096 9.57955 31.616 9.86174 31.8849 10.0625C32.1577 10.2595 32.4929 10.358 32.8906 10.358Z" fill="black"/>
<path d="M41.4531 0.664773V12.3011H39.0327V0.664773H41.4531Z" fill="black"/>
<path d="M45.8807 12.4659C45.3239 12.4659 44.8277 12.3693 44.392 12.1761C43.9564 11.9792 43.6117 11.6894 43.358 11.3068C43.108 10.9205 42.983 10.4394 42.983 9.86364C42.983 9.37879 43.072 8.97159 43.25 8.64205C43.428 8.3125 43.6705 8.04735 43.9773 7.84659C44.2841 7.64583 44.6326 7.49432 45.0227 7.39205C45.4167 7.28977 45.8295 7.2178 46.2614 7.17614C46.7689 7.12311 47.178 7.07386 47.4886 7.02841C47.7992 6.97917 48.0246 6.9072 48.1648 6.8125C48.3049 6.7178 48.375 6.57765 48.375 6.39205V6.35795C48.375 5.99811 48.2614 5.7197 48.0341 5.52273C47.8106 5.32576 47.4924 5.22727 47.0795 5.22727C46.6439 5.22727 46.2973 5.32386 46.0398 5.51705C45.7822 5.70644 45.6117 5.94508 45.5284 6.23295L43.2898 6.05114C43.4034 5.52083 43.6269 5.0625 43.9602 4.67614C44.2936 4.28598 44.7235 3.98674 45.25 3.77841C45.7803 3.56629 46.3939 3.46023 47.0909 3.46023C47.5758 3.46023 48.0398 3.51705 48.483 3.63068C48.9299 3.74432 49.3258 3.92045 49.6705 4.15909C50.0189 4.39773 50.2936 4.70455 50.4943 5.07955C50.6951 5.45076 50.7955 5.89583 50.7955 6.41477V12.3011H48.5V11.0909H48.4318C48.2917 11.3636 48.1042 11.6042 47.8693 11.8125C47.6345 12.017 47.3523 12.178 47.0227 12.2955C46.6932 12.4091 46.3125 12.4659 45.8807 12.4659ZM46.5739 10.7955C46.9299 10.7955 47.2443 10.7254 47.517 10.5852C47.7898 10.4413 48.0038 10.2481 48.1591 10.0057C48.3144 9.76326 48.392 9.48864 48.392 9.18182V8.25568C48.3163 8.30492 48.2121 8.35038 48.0795 8.39205C47.9508 8.42992 47.8049 8.46591 47.642 8.5C47.4792 8.5303 47.3163 8.55871 47.1534 8.58523C46.9905 8.60795 46.8428 8.62879 46.7102 8.64773C46.4261 8.68939 46.178 8.75568 45.9659 8.84659C45.7538 8.9375 45.589 9.06061 45.4716 9.21591C45.3542 9.36742 45.2955 9.55682 45.2955 9.78409C45.2955 10.1136 45.4148 10.3655 45.6534 10.5398C45.8958 10.7102 46.2027 10.7955 46.5739 10.7955Z" fill="black"/>
<path d="M57.4347 12.3011V3.57386H58.7301V4.9375H58.8438C59.0256 4.47159 59.3191 4.10985 59.7244 3.85227C60.1297 3.59091 60.6165 3.46023 61.1847 3.46023C61.7604 3.46023 62.2396 3.59091 62.6222 3.85227C63.0085 4.10985 63.3097 4.47159 63.5256 4.9375H63.6165C63.84 4.48674 64.1752 4.12879 64.6222 3.86364C65.0691 3.5947 65.6051 3.46023 66.2301 3.46023C67.0104 3.46023 67.6487 3.70455 68.1449 4.19318C68.6411 4.67803 68.8892 5.43371 68.8892 6.46023V12.3011H67.5483V6.46023C67.5483 5.81629 67.3722 5.35606 67.0199 5.07955C66.6676 4.80303 66.2528 4.66477 65.7756 4.66477C65.1619 4.66477 64.6866 4.85038 64.3494 5.22159C64.0123 5.58902 63.8438 6.05492 63.8438 6.61932V12.3011H62.4801V6.32386C62.4801 5.82765 62.3191 5.42803 61.9972 5.125C61.6752 4.81818 61.2604 4.66477 60.7528 4.66477C60.4044 4.66477 60.0786 4.75758 59.7756 4.94318C59.4763 5.12879 59.2339 5.38636 59.0483 5.71591C58.8665 6.04167 58.7756 6.41856 58.7756 6.84659V12.3011H57.4347Z" fill="black"/>
<path d="M75 12.483C74.1591 12.483 73.4337 12.2973 72.8239 11.9261C72.2178 11.5511 71.75 11.0284 71.4205 10.358C71.0947 9.68371 70.9318 8.89962 70.9318 8.00568C70.9318 7.11174 71.0947 6.32386 71.4205 5.64205C71.75 4.95644 72.2083 4.42235 72.7955 4.03977C73.3864 3.65341 74.0758 3.46023 74.8636 3.46023C75.3182 3.46023 75.767 3.53599 76.2102 3.6875C76.6534 3.83902 77.0568 4.08523 77.4205 4.42614C77.7841 4.76326 78.0739 5.21023 78.2898 5.76705C78.5057 6.32386 78.6136 7.00947 78.6136 7.82386V8.39205H71.8864V7.23295H77.25C77.25 6.74053 77.1515 6.30114 76.9545 5.91477C76.7614 5.52841 76.4848 5.22348 76.125 5C75.7689 4.77652 75.3485 4.66477 74.8636 4.66477C74.3296 4.66477 73.8674 4.79735 73.4773 5.0625C73.0909 5.32386 72.7936 5.66477 72.5852 6.08523C72.3769 6.50568 72.2727 6.95644 72.2727 7.4375V8.21023C72.2727 8.86932 72.3864 9.42803 72.6136 9.88636C72.8447 10.3409 73.1648 10.6875 73.5739 10.9261C73.9829 11.161 74.4583 11.2784 75 11.2784C75.3523 11.2784 75.6705 11.2292 75.9545 11.1307C76.2424 11.0284 76.4905 10.8769 76.6989 10.6761C76.9072 10.4716 77.0682 10.2178 77.1818 9.91477L78.4773 10.2784C78.3409 10.7178 78.1117 11.1042 77.7898 11.4375C77.4678 11.767 77.0701 12.0246 76.5966 12.2102C76.1231 12.392 75.5909 12.483 75 12.483Z" fill="black"/>
<path d="M83.9489 12.483C83.2216 12.483 82.5795 12.2992 82.0227 11.9318C81.4659 11.5606 81.0303 11.0379 80.7159 10.3636C80.4015 9.68561 80.2443 8.88447 80.2443 7.96023C80.2443 7.04356 80.4015 6.24811 80.7159 5.57386C81.0303 4.89962 81.4678 4.37879 82.0284 4.01136C82.589 3.64394 83.2367 3.46023 83.9716 3.46023C84.5398 3.46023 84.9886 3.55492 85.3182 3.74432C85.6515 3.92992 85.9053 4.14205 86.0795 4.38068C86.2576 4.61553 86.3958 4.80871 86.4943 4.96023H86.608V0.664773H87.9489V12.3011H86.6534V10.9602H86.4943C86.3958 11.1193 86.2557 11.3201 86.0739 11.5625C85.892 11.8011 85.6326 12.0152 85.2955 12.2045C84.9583 12.3902 84.5095 12.483 83.9489 12.483ZM84.1307 11.2784C84.6686 11.2784 85.1231 11.1383 85.4943 10.858C85.8655 10.5739 86.1477 10.1818 86.3409 9.68182C86.5341 9.17803 86.6307 8.59659 86.6307 7.9375C86.6307 7.28598 86.536 6.71591 86.3466 6.22727C86.1572 5.73485 85.8769 5.35227 85.5057 5.07955C85.1345 4.80303 84.6761 4.66477 84.1307 4.66477C83.5625 4.66477 83.089 4.81061 82.7102 5.10227C82.3352 5.39015 82.053 5.7822 81.8636 6.27841C81.678 6.77083 81.5852 7.32386 81.5852 7.9375C81.5852 8.55871 81.6799 9.12311 81.8693 9.63068C82.0625 10.1345 82.3466 10.536 82.7216 10.8352C83.1004 11.1307 83.5701 11.2784 84.1307 11.2784Z" fill="black"/>
</g>
</svg>
