<svg width="128" height="61" viewBox="0 0 128 61" fill="none" xmlns="http://www.w3.org/2000/svg">
<path d="M57.9875 30.4394C57.5121 30.4394 57.0364 30.2581 56.674 29.8944L51.0766 24.2849C50.3531 23.5586 50.3531 22.3789 51.0792 21.6548C51.8046 20.9276 52.9802 20.9276 53.7056 21.6548L59.3028 27.2634C60.0264 27.9904 60.0264 29.1701 59.3006 29.8944C58.9375 30.2581 58.4629 30.4394 57.9875 30.4394Z" fill="#E51236"/>
<path d="M112.549 31.2916C104.033 31.2916 97.1031 24.2747 97.1031 15.648C97.1031 12.7473 97.8918 9.91535 99.3854 7.45808C99.9185 6.57903 101.06 6.30109 101.94 6.83462C102.814 7.36943 103.094 8.51423 102.561 9.39162C101.421 11.267 100.819 13.4288 100.819 15.648C100.819 22.2211 106.08 27.5706 112.549 27.5706C119.019 27.5706 124.285 22.2211 124.285 15.648C124.285 9.0749 119.019 3.72101 112.549 3.72101C110.659 3.72267 108.856 4.16441 107.191 5.03663C106.28 5.51456 105.158 5.15777 104.685 4.2477C104.209 3.33725 104.562 2.21314 105.47 1.73649C107.64 0.602593 110.089 0.00166207 112.548 0C121.069 0 128 7.01855 128 15.648C128 24.2775 121.069 31.2916 112.549 31.2916Z" fill="#E51236"/>
<path d="M50.4545 0.900635H37.2178C36.4461 0.900635 35.7856 1.37008 35.5046 2.03952C35.4037 2.26963 35.3456 2.52226 35.3456 2.78875V28.5257C35.3456 29.5542 36.1763 30.3867 37.2034 30.3867C38.2305 30.3867 39.0611 29.5542 39.0611 28.5257V4.62256H50.4545C53.5691 4.62256 56.1042 7.15999 56.1042 10.2817C56.1042 13.4035 53.5691 15.9416 50.4545 15.9416H43.9487C42.9216 15.9416 42.0907 16.774 42.0907 17.8024C42.0907 18.8309 42.9216 19.6632 43.9487 19.6632H50.4545C55.6174 19.6632 59.8199 15.4543 59.8199 10.2817C59.8199 5.10918 55.6174 0.900635 50.4545 0.900635Z" fill="#E51236"/>
<path d="M89.5266 15.4822H82.0012C80.9759 15.4822 80.1432 16.3143 80.1432 17.3431C80.1432 18.372 80.9759 19.2034 82.0012 19.2034H87.6681V28.6046C87.6681 29.6325 88.499 30.4657 89.5264 30.4657C90.5539 30.4657 91.3844 29.6325 91.3844 28.6046V17.3431C91.3844 16.3143 90.5513 15.4822 89.5264 15.4822" fill="#E51236"/>
<path d="M80.3356 31.3773C71.8155 31.3773 64.8857 24.3586 64.8857 15.7289C64.8857 7.09927 71.8153 0.0849609 80.3356 0.0849609C83.69 0.0849609 86.8818 1.15681 89.5668 3.18638C90.3846 3.80486 90.546 4.97292 89.9302 5.79214C89.3125 6.61191 88.1479 6.77664 87.3275 6.15613C85.2923 4.61909 82.8754 3.80615 80.3358 3.80615C73.866 3.80615 68.6005 9.15525 68.6005 15.7289C68.6005 22.3026 73.866 27.6565 80.3358 27.6565C81.154 27.6565 81.9795 27.5689 82.7848 27.3963C83.794 27.1725 84.7769 27.8208 84.9911 28.8264C85.2054 29.8314 84.5668 30.8192 83.5613 31.0345C82.5021 31.2624 81.4151 31.3773 80.3358 31.3773" fill="#E51236"/>
<path d="M15.0747 30.3849C14.0487 30.3849 13.2171 29.5524 13.2171 28.5241V17.4111C13.2171 16.3838 14.0487 15.5513 15.0747 15.5513C16.1007 15.5513 16.9331 16.3838 16.9331 17.4111V28.5241C16.9331 29.5524 16.1009 30.3849 15.0747 30.3849Z" fill="#E51236"/>
<path d="M18.9561 12.5857C18.4238 12.5857 17.8951 12.3569 17.5281 11.9161C16.8708 11.1248 16.9792 9.95318 17.7673 9.29518L27.2902 1.35917C28.0781 0.701358 29.2489 0.807731 29.9053 1.59943C30.5625 2.3891 30.4548 3.56104 29.6661 4.21793L20.144 12.1558C19.7966 12.4443 19.3756 12.5857 18.9561 12.5857Z" fill="#E51236"/>
<path d="M11.3857 12.5858C10.9663 12.5858 10.5457 12.4443 10.1985 12.1559L0.669731 4.218C-0.118755 3.56296 -0.226628 2.38898 0.429276 1.5995C1.085 0.809833 2.2574 0.701429 3.04607 1.35924L12.5748 9.29525C13.3628 9.9514 13.4712 11.1248 12.8153 11.9162C12.4476 12.357 11.9182 12.5858 11.3857 12.5858Z" fill="#E51236"/>
<path d="M13.6072 44.8759V39.2349H14.457V41.6863H17.265V39.2349H18.1176V44.8759H17.265V42.4163H14.457V44.8759H13.6072Z" fill="#E51236"/>
<path d="M24.2756 42.0554C24.2756 42.6577 24.1656 43.1755 23.9456 43.6089C23.7255 44.0404 23.4239 44.3728 23.0407 44.606C22.6593 44.8374 22.2257 44.953 21.7398 44.953C21.2521 44.953 20.8167 44.8374 20.4335 44.606C20.0521 44.3728 19.7514 44.0395 19.5314 43.6061C19.3114 43.1728 19.2014 42.6559 19.2014 42.0554C19.2014 41.4531 19.3114 40.9362 19.5314 40.5047C19.7514 40.0714 20.0521 39.739 20.4335 39.5076C20.8167 39.2744 21.2521 39.1578 21.7398 39.1578C22.2257 39.1578 22.6593 39.2744 23.0407 39.5076C23.4239 39.739 23.7255 40.0714 23.9456 40.5047C24.1656 40.9362 24.2756 41.4531 24.2756 42.0554ZM23.434 42.0554C23.434 41.5964 23.3597 41.2098 23.2112 40.8958C23.0646 40.58 22.8629 40.3413 22.6062 40.1797C22.3513 40.0163 22.0625 39.9346 21.7398 39.9346C21.4153 39.9346 21.1256 40.0163 20.8708 40.1797C20.6159 40.3413 20.4142 40.58 20.2657 40.8958C20.119 41.2098 20.0457 41.5964 20.0457 42.0554C20.0457 42.5145 20.119 42.9019 20.2657 43.2178C20.4142 43.5318 20.6159 43.7705 20.8708 43.9339C21.1256 44.0955 21.4153 44.1763 21.7398 44.1763C22.0625 44.1763 22.3513 44.0955 22.6062 43.9339C22.8629 43.7705 23.0646 43.5318 23.2112 43.2178C23.3597 42.9019 23.434 42.5145 23.434 42.0554ZM20.9313 38.5711C20.8011 38.5711 20.6874 38.5234 20.5902 38.4279C20.4931 38.3306 20.4445 38.2186 20.4445 38.0919C20.4445 37.9542 20.4931 37.8394 20.5902 37.7476C20.6874 37.6558 20.8011 37.6099 20.9313 37.6099C21.0688 37.6099 21.1834 37.6558 21.2751 37.7476C21.3686 37.8394 21.4153 37.9542 21.4153 38.0919C21.4153 38.2186 21.3686 38.3306 21.2751 38.4279C21.1834 38.5234 21.0688 38.5711 20.9313 38.5711ZM22.5484 38.5711C22.4182 38.5711 22.3046 38.5234 22.2074 38.4279C22.1102 38.3306 22.0616 38.2186 22.0616 38.0919C22.0616 37.9542 22.1102 37.8394 22.2074 37.7476C22.3046 37.6558 22.4182 37.6099 22.5484 37.6099C22.6859 37.6099 22.8005 37.6558 22.8922 37.7476C22.9857 37.8394 23.0325 37.9542 23.0325 38.0919C23.0325 38.2186 22.9857 38.3306 22.8922 38.4279C22.8005 38.5234 22.6859 38.5711 22.5484 38.5711Z" fill="#E51236"/>
<path d="M29.1746 41.017C29.1215 40.8499 29.05 40.7003 28.9601 40.5681C28.8721 40.434 28.7667 40.3202 28.6438 40.2265C28.521 40.131 28.3807 40.0585 28.223 40.0089C28.0672 39.9593 27.8958 39.9346 27.7087 39.9346C27.3916 39.9346 27.1055 40.0163 26.8507 40.1797C26.5958 40.3431 26.3941 40.5828 26.2456 40.8986C26.0989 41.2126 26.0256 41.5973 26.0256 42.0527C26.0256 42.5099 26.0998 42.8964 26.2484 43.2123C26.3969 43.5281 26.6004 43.7677 26.8589 43.9312C27.1174 44.0946 27.4117 44.1763 27.7417 44.1763C28.0479 44.1763 28.3147 44.1139 28.5421 43.989C28.7713 43.8641 28.9482 43.6879 29.0729 43.4602C29.1994 43.2306 29.2626 42.9607 29.2626 42.6504L29.4827 42.6917H27.871V41.9893H30.085V42.6311C30.085 43.1048 29.9841 43.5162 29.7824 43.8651C29.5826 44.2121 29.3057 44.4802 28.9519 44.6693C28.5998 44.8585 28.1965 44.953 27.7417 44.953C27.232 44.953 26.7847 44.8355 26.3996 44.6005C26.0164 44.3654 25.7176 44.0322 25.503 43.6006C25.2885 43.1673 25.1813 42.6531 25.1813 42.0582C25.1813 41.6083 25.2436 41.2043 25.3683 40.8463C25.493 40.4882 25.6681 40.1843 25.8936 39.9346C26.1209 39.683 26.3877 39.4911 26.6939 39.3589C27.0019 39.2248 27.3384 39.1578 27.7032 39.1578C28.0076 39.1578 28.2909 39.2028 28.5531 39.2928C28.8171 39.3828 29.0518 39.5104 29.2571 39.6756C29.4643 39.8409 29.6358 40.0374 29.7714 40.2651C29.9071 40.4909 29.9988 40.7416 30.0465 41.017H29.1746Z" fill="#E51236"/>
<path d="M31.1914 44.8759V39.2349H33.1991C33.6355 39.2349 33.9976 39.3102 34.2855 39.4608C34.5751 39.6114 34.7915 39.8198 34.9345 40.086C35.0775 40.3505 35.149 40.6562 35.149 41.0033C35.149 41.3485 35.0766 41.6524 34.9318 41.915C34.7888 42.1757 34.5724 42.3786 34.2827 42.5237C33.9948 42.6687 33.6327 42.7413 33.1964 42.7413H31.6755V42.0086H33.1193C33.3944 42.0086 33.6181 41.9691 33.7904 41.8902C33.9646 41.8112 34.092 41.6964 34.1727 41.5459C34.2534 41.3953 34.2937 41.2144 34.2937 41.0033C34.2937 40.7903 34.2525 40.6057 34.1699 40.4496C34.0893 40.2935 33.9618 40.1742 33.7877 40.0916C33.6153 40.0071 33.3889 39.9649 33.1083 39.9649H32.0412V44.8759H31.1914ZM33.9719 42.3309L35.3636 44.8759H34.3955L33.0313 42.3309H33.9719Z" fill="#E51236"/>
<path d="M36.2108 44.8759V39.2349H39.7421V39.9676H37.0606V41.6863H39.5579V42.4163H37.0606V44.1432H39.7751V44.8759H36.2108Z" fill="#E51236"/>
<path d="M42.5477 39.2349H43.513L44.9844 41.7993H45.0449L46.5163 39.2349H47.4817L45.4382 42.6614V44.8759H44.5911V42.6614L42.5477 39.2349Z" fill="#E51236"/>
<path d="M48.3117 44.8759V39.2349H50.3194C50.7558 39.2349 51.1179 39.3102 51.4057 39.4608C51.6954 39.6114 51.9118 39.8198 52.0548 40.086C52.1978 40.3505 52.2693 40.6562 52.2693 41.0033C52.2693 41.3485 52.1969 41.6524 52.0521 41.915C51.909 42.1757 51.6927 42.3786 51.403 42.5237C51.1151 42.6687 50.753 42.7413 50.3166 42.7413H48.7958V42.0086H50.2396C50.5147 42.0086 50.7383 41.9691 50.9107 41.8902C51.0849 41.8112 51.2123 41.6964 51.293 41.5459C51.3737 41.3953 51.414 41.2144 51.414 41.0033C51.414 40.7903 51.3727 40.6057 51.2902 40.4496C51.2096 40.2935 51.0821 40.1742 50.9079 40.0916C50.7356 40.0071 50.5092 39.9649 50.2286 39.9649H49.1615V44.8759H48.3117ZM51.0922 42.3309L52.4838 44.8759H51.5158L50.1516 42.3309H51.0922Z" fill="#E51236"/>
<path d="M53.3311 44.8759V39.2349H54.1809V41.9287H54.2497L56.6121 39.2349H57.682L55.4103 41.7745L57.6902 44.8759H56.6671L54.8465 42.3557L54.1809 43.1214V44.8759H53.3311Z" fill="#E51236"/>
<path d="M58.5017 44.8759V39.2349H62.0331V39.9676H59.3516V41.6863H61.8488V42.4163H59.3516V44.1432H62.0661V44.8759H58.5017Z" fill="#E51236"/>
<path d="M66.2679 40.7168C66.2386 40.4561 66.1176 40.2541 65.9049 40.1108C65.6922 39.9658 65.4245 39.8932 65.1018 39.8932C64.8708 39.8932 64.6709 39.93 64.5023 40.0034C64.3336 40.075 64.2025 40.1742 64.109 40.3009C64.0173 40.4258 63.9715 40.5681 63.9715 40.7278C63.9715 40.8619 64.0026 40.9775 64.065 41.0749C64.1291 41.1722 64.2126 41.2539 64.3152 41.32C64.4197 41.3843 64.5316 41.4384 64.6508 41.4825C64.7699 41.5248 64.8845 41.5596 64.9945 41.5872L65.5446 41.7304C65.7243 41.7745 65.9086 41.8342 66.0974 41.9094C66.2863 41.9847 66.4613 42.0839 66.6227 42.2069C66.784 42.3299 66.9142 42.4824 67.0132 42.6641C67.1141 42.8459 67.1645 43.0635 67.1645 43.3169C67.1645 43.6364 67.082 43.9201 66.917 44.168C66.7538 44.4159 66.5164 44.6115 66.2047 44.7547C65.8948 44.8979 65.5198 44.9696 65.0798 44.9696C64.6581 44.9696 64.2932 44.9025 63.9852 44.7685C63.6772 44.6344 63.4361 44.4444 63.2619 44.1983C63.0877 43.9504 62.9914 43.6566 62.9731 43.3169H63.8257C63.8422 43.5208 63.9082 43.6906 64.0237 43.8265C64.1411 43.9605 64.2905 44.0606 64.472 44.1267C64.6553 44.191 64.8561 44.2231 65.0743 44.2231C65.3145 44.2231 65.5281 44.1855 65.7151 44.1102C65.904 44.0331 66.0525 43.9266 66.1607 43.7907C66.2688 43.653 66.3229 43.4923 66.3229 43.3087C66.3229 43.1416 66.2752 43.0048 66.1799 42.8983C66.0864 42.7918 65.959 42.7036 65.7976 42.6338C65.6381 42.5641 65.4575 42.5026 65.2558 42.4493L64.5903 42.2675C64.1392 42.1445 63.7817 41.9636 63.5177 41.7249C63.2555 41.4862 63.1244 41.1704 63.1244 40.7774C63.1244 40.4524 63.2124 40.1687 63.3884 39.9263C63.5644 39.6839 63.8028 39.4957 64.1035 39.3616C64.4042 39.2258 64.7434 39.1578 65.1211 39.1578C65.5024 39.1578 65.8389 39.2248 66.1304 39.3589C66.4238 39.4929 66.6548 39.6775 66.8235 39.9125C66.9921 40.1457 67.0802 40.4138 67.0875 40.7168H66.2679Z" fill="#E51236"/>
<path d="M71.8298 39.2349H72.6824V42.9451C72.6824 43.3399 72.5898 43.6897 72.4046 43.9945C72.2194 44.2975 71.959 44.5362 71.6235 44.7106C71.288 44.8833 70.8947 44.9696 70.4436 44.9696C69.9944 44.9696 69.6021 44.8833 69.2665 44.7106C68.931 44.5362 68.6707 44.2975 68.4855 43.9945C68.3003 43.6897 68.2077 43.3399 68.2077 42.9451V39.2349H69.0575V42.8762C69.0575 43.1315 69.1134 43.3582 69.2253 43.5566C69.339 43.7549 69.4994 43.911 69.7066 44.0248C69.9138 44.1368 70.1595 44.1928 70.4436 44.1928C70.7297 44.1928 70.9763 44.1368 71.1835 44.0248C71.3925 43.911 71.552 43.7549 71.662 43.5566C71.7739 43.3582 71.8298 43.1315 71.8298 42.8762V39.2349Z" fill="#E51236"/>
<path d="M73.6678 39.9676V39.2349H78.027V39.9676H76.2695V44.8759H75.4225V39.9676H73.6678Z" fill="#E51236"/>
<path d="M79.0179 44.8759V39.2349H81.0806C81.4803 39.2349 81.8112 39.3011 82.0734 39.4333C82.3356 39.5636 82.5318 39.7408 82.662 39.9649C82.7922 40.187 82.8573 40.4377 82.8573 40.7168C82.8573 40.9518 82.8142 41.1502 82.728 41.3117C82.6418 41.4715 82.5263 41.6 82.3815 41.6974C82.2384 41.7928 82.0808 41.8626 81.9084 41.9067V41.9618C82.0954 41.971 82.2779 42.0316 82.4557 42.1436C82.6354 42.2537 82.7839 42.4107 82.9013 42.6146C83.0186 42.8184 83.0773 43.0663 83.0773 43.3582C83.0773 43.6465 83.0094 43.9055 82.8738 44.135C82.7399 44.3627 82.5327 44.5436 82.2522 44.6776C81.9717 44.8098 81.6132 44.8759 81.1768 44.8759H79.0179ZM79.8677 44.146H81.0943C81.5014 44.146 81.7929 44.067 81.9689 43.9091C82.1449 43.7512 82.2329 43.5538 82.2329 43.3169C82.2329 43.1388 82.188 42.9754 82.0982 42.8267C82.0083 42.6779 81.88 42.5595 81.7132 42.4713C81.5481 42.3832 81.3519 42.3391 81.1246 42.3391H79.8677V44.146ZM79.8677 41.6753H81.0063C81.197 41.6753 81.3684 41.6386 81.5206 41.5651C81.6746 41.4917 81.7966 41.3889 81.8864 41.2567C81.9781 41.1226 82.0239 40.9647 82.0239 40.7829C82.0239 40.5497 81.9423 40.3541 81.7792 40.1962C81.616 40.0383 81.3657 39.9593 81.0283 39.9593H79.8677V41.6753Z" fill="#E51236"/>
<path d="M84.9627 39.2349V44.8759H84.1129V39.2349H84.9627Z" fill="#E51236"/>
<path d="M86.228 44.8759V39.2349H87.0778V44.1432H89.6301V44.8759H86.228Z" fill="#E51236"/>
<path d="M92.4506 44.8759H90.6272V39.2349H92.5084C93.0603 39.2349 93.5342 39.3479 93.9303 39.5737C94.3263 39.7978 94.6297 40.12 94.8406 40.5405C95.0533 40.9592 95.1596 41.4614 95.1596 42.0472C95.1596 42.6348 95.0524 43.1397 94.8378 43.5621C94.6252 43.9844 94.3171 44.3094 93.9137 44.5371C93.5104 44.763 93.0227 44.8759 92.4506 44.8759ZM91.477 44.1322H92.4039C92.8329 44.1322 93.1895 44.0514 93.4737 43.8898C93.7579 43.7264 93.9706 43.4905 94.1118 43.182C94.253 42.8716 94.3235 42.4934 94.3235 42.0472C94.3235 41.6046 94.253 41.2291 94.1118 40.9206C93.9724 40.6121 93.7643 40.378 93.4875 40.2183C93.2106 40.0585 92.8668 39.9786 92.4561 39.9786H91.477V44.1322Z" fill="#E51236"/>
<path d="M100.79 39.2349V44.8759H100.009L97.1461 40.7388H97.0939V44.8759H96.2441V39.2349H97.0306L99.8964 43.3775H99.9487V39.2349H100.79Z" fill="#E51236"/>
<path d="M102.907 39.2349V44.8759H102.058V39.2349H102.907Z" fill="#E51236"/>
<path d="M108.719 39.2349V44.8759H107.938L105.075 40.7388H105.023V44.8759H104.173V39.2349H104.959L107.825 43.3775H107.877V39.2349H108.719Z" fill="#E51236"/>
<path d="M113.798 41.017C113.745 40.8499 113.673 40.7003 113.584 40.5681C113.496 40.434 113.39 40.3202 113.267 40.2265C113.144 40.131 113.004 40.0585 112.846 40.0089C112.691 39.9593 112.519 39.9346 112.332 39.9346C112.015 39.9346 111.729 40.0163 111.474 40.1797C111.219 40.3431 111.018 40.5828 110.869 40.8986C110.722 41.2126 110.649 41.5973 110.649 42.0527C110.649 42.5099 110.723 42.8964 110.872 43.2123C111.02 43.5281 111.224 43.7677 111.482 43.9312C111.741 44.0946 112.035 44.1763 112.365 44.1763C112.671 44.1763 112.938 44.1139 113.165 43.989C113.395 43.8641 113.572 43.6879 113.696 43.4602C113.823 43.2306 113.886 42.9607 113.886 42.6504L114.106 42.6917H112.494V41.9893H114.708V42.6311C114.708 43.1048 114.608 43.5162 114.406 43.8651C114.206 44.2121 113.929 44.4802 113.575 44.6693C113.223 44.8585 112.82 44.953 112.365 44.953C111.855 44.953 111.408 44.8355 111.023 44.6005C110.64 44.3654 110.341 44.0322 110.126 43.6006C109.912 43.1673 109.805 42.6531 109.805 42.0582C109.805 41.6083 109.867 41.2043 109.992 40.8463C110.116 40.4882 110.291 40.1843 110.517 39.9346C110.744 39.683 111.011 39.4911 111.317 39.3589C111.625 39.2248 111.962 39.1578 112.327 39.1578C112.631 39.1578 112.914 39.2028 113.176 39.2928C113.441 39.3828 113.675 39.5104 113.881 39.6756C114.088 39.8409 114.259 40.0374 114.395 40.2651C114.531 40.4909 114.622 40.7416 114.67 41.017H113.798Z" fill="#E51236"/>
<path d="M46.8949 50.8048C46.8417 50.6377 46.7702 50.488 46.6804 50.3558C46.5924 50.2218 46.4869 50.1079 46.3641 50.0143C46.2413 49.9188 46.101 49.8463 45.9433 49.7967C45.7875 49.7471 45.616 49.7223 45.429 49.7223C45.1118 49.7223 44.8258 49.804 44.5709 49.9674C44.3161 50.1309 44.1144 50.3705 43.9659 50.6863C43.8192 51.0003 43.7459 51.385 43.7459 51.8404C43.7459 52.2976 43.8201 52.6842 43.9686 53C44.1171 53.3158 44.3207 53.5555 44.5792 53.7189C44.8377 53.8823 45.132 53.964 45.462 53.964C45.7682 53.964 46.035 53.9016 46.2623 53.7767C46.4915 53.6519 46.6685 53.4756 46.7931 53.2479C46.9197 53.0184 46.9829 52.7484 46.9829 52.4381L47.2029 52.4794H45.5913V51.7771H47.8052V52.4188C47.8052 52.8926 47.7044 53.3039 47.5027 53.6528C47.3029 53.9999 47.026 54.2679 46.6721 54.4571C46.3201 54.6462 45.9167 54.7408 45.462 54.7408C44.9523 54.7408 44.5049 54.6233 44.1199 54.3882C43.7367 54.1532 43.4378 53.8199 43.2233 53.3884C43.0088 52.955 42.9015 52.4409 42.9015 51.8459C42.9015 51.396 42.9639 50.9921 43.0885 50.634C43.2132 50.2759 43.3883 49.972 43.6138 49.7223C43.8412 49.4707 44.108 49.2788 44.4142 49.1466C44.7222 49.0126 45.0586 48.9456 45.4235 48.9456C45.7279 48.9456 46.0112 48.9906 46.2733 49.0805C46.5374 49.1705 46.7721 49.2981 46.9774 49.4634C47.1846 49.6287 47.356 49.8251 47.4917 50.0528C47.6274 50.2787 47.7191 50.5293 47.7667 50.8048H46.8949Z" fill="#E51236"/>
<path d="M53.8044 51.8432C53.8044 52.4455 53.6944 52.9633 53.4744 53.3966C53.2543 53.8282 52.9527 54.1605 52.5695 54.3937C52.1882 54.6251 51.7545 54.7408 51.2687 54.7408C50.7809 54.7408 50.3455 54.6251 49.9623 54.3937C49.5809 54.1605 49.2802 53.8272 49.0602 53.3939C48.8402 52.9605 48.7302 52.4436 48.7302 51.8432C48.7302 51.2409 48.8402 50.724 49.0602 50.2925C49.2802 49.8591 49.5809 49.5267 49.9623 49.2954C50.3455 49.0622 50.7809 48.9456 51.2687 48.9456C51.7545 48.9456 52.1882 49.0622 52.5695 49.2954C52.9527 49.5267 53.2543 49.8591 53.4744 50.2925C53.6944 50.724 53.8044 51.2409 53.8044 51.8432ZM52.9628 51.8432C52.9628 51.3841 52.8886 50.9976 52.74 50.6836C52.5934 50.3677 52.3917 50.129 52.135 49.9674C51.8801 49.804 51.5914 49.7223 51.2687 49.7223C50.9441 49.7223 50.6544 49.804 50.3996 49.9674C50.1447 50.129 49.943 50.3677 49.7945 50.6836C49.6478 50.9976 49.5745 51.3841 49.5745 51.8432C49.5745 52.3022 49.6478 52.6897 49.7945 53.0055C49.943 53.3195 50.1447 53.5582 50.3996 53.7217C50.6544 53.8832 50.9441 53.964 51.2687 53.964C51.5914 53.964 51.8801 53.8832 52.135 53.7217C52.3917 53.5582 52.5934 53.3195 52.74 53.0055C52.8886 52.6897 52.9628 52.3022 52.9628 51.8432ZM50.4601 48.3589C50.3299 48.3589 50.2162 48.3111 50.119 48.2157C50.0219 48.1183 49.9733 48.0063 49.9733 47.8796C49.9733 47.7419 50.0219 47.6271 50.119 47.5353C50.2162 47.4435 50.3299 47.3976 50.4601 47.3976C50.5976 47.3976 50.7122 47.4435 50.8039 47.5353C50.8974 47.6271 50.9441 47.7419 50.9441 47.8796C50.9441 48.0063 50.8974 48.1183 50.8039 48.2157C50.7122 48.3111 50.5976 48.3589 50.4601 48.3589ZM52.0772 48.3589C51.9471 48.3589 51.8334 48.3111 51.7362 48.2157C51.639 48.1183 51.5904 48.0063 51.5904 47.8796C51.5904 47.7419 51.639 47.6271 51.7362 47.5353C51.8334 47.4435 51.9471 47.3976 52.0772 47.3976C52.2147 47.3976 52.3293 47.4435 52.421 47.5353C52.5145 47.6271 52.5613 47.7419 52.5613 47.8796C52.5613 48.0063 52.5145 48.1183 52.421 48.2157C52.3293 48.3111 52.2147 48.3589 52.0772 48.3589Z" fill="#E51236"/>
<path d="M54.3718 49.7554V49.0227H58.7309V49.7554H56.9735V54.6637H56.1265V49.7554H54.3718Z" fill="#E51236"/>
<path d="M59.7219 54.6637V49.0227H63.2532V49.7554H60.5717V51.4741H63.0689V52.204H60.5717V53.931H63.2862V54.6637H59.7219Z" fill="#E51236"/>
<path d="M64.416 54.6637V49.0227H66.4787C66.8784 49.0227 67.2094 49.0888 67.4716 49.221C67.7338 49.3514 67.93 49.5286 68.0601 49.7526C68.1903 49.9748 68.2554 50.2254 68.2554 50.5045C68.2554 50.7396 68.2123 50.9379 68.1261 51.0995C68.04 51.2592 67.9245 51.3878 67.7796 51.4851C67.6366 51.5806 67.4789 51.6504 67.3066 51.6944V51.7495C67.4936 51.7587 67.676 51.8193 67.8539 51.9313C68.0335 52.0415 68.1821 52.1985 68.2994 52.4023C68.4168 52.6061 68.4754 52.854 68.4754 53.146C68.4754 53.4343 68.4076 53.6932 68.2719 53.9227C68.1381 54.1504 67.9309 54.3313 67.6503 54.4653C67.3698 54.5976 67.0114 54.6637 66.575 54.6637H64.416ZM65.2659 53.9337H66.4925C66.8995 53.9337 67.1911 53.8548 67.3671 53.6969C67.5431 53.539 67.6311 53.3416 67.6311 53.1047C67.6311 52.9266 67.5862 52.7631 67.4963 52.6144C67.4065 52.4657 67.2781 52.3472 67.1113 52.2591C66.9463 52.1709 66.7501 52.1269 66.5227 52.1269H65.2659V53.9337ZM65.2659 51.4631H66.4045C66.5952 51.4631 66.7666 51.4263 66.9188 51.3529C67.0728 51.2794 67.1947 51.1766 67.2846 51.0444C67.3762 50.9104 67.4221 50.7524 67.4221 50.5707C67.4221 50.3374 67.3405 50.1419 67.1773 49.984C67.0141 49.8261 66.7638 49.7471 66.4265 49.7471H65.2659V51.4631Z" fill="#E51236"/>
<path d="M74.4038 51.8432C74.4038 52.4455 74.2938 52.9633 74.0737 53.3966C73.8537 53.8282 73.5521 54.1605 73.1689 54.3937C72.7875 54.6251 72.3539 54.7408 71.868 54.7408C71.3803 54.7408 70.9449 54.6251 70.5616 54.3937C70.1803 54.1605 69.8796 53.8272 69.6596 53.3939C69.4395 52.9605 69.3295 52.4436 69.3295 51.8432C69.3295 51.2409 69.4395 50.724 69.6596 50.2925C69.8796 49.8591 70.1803 49.5267 70.5616 49.2954C70.9449 49.0622 71.3803 48.9456 71.868 48.9456C72.3539 48.9456 72.7875 49.0622 73.1689 49.2954C73.5521 49.5267 73.8537 49.8591 74.0737 50.2925C74.2938 50.724 74.4038 51.2409 74.4038 51.8432ZM73.5622 51.8432C73.5622 51.3841 73.4879 50.9976 73.3394 50.6836C73.1927 50.3677 72.991 50.129 72.7343 49.9674C72.4795 49.804 72.1907 49.7223 71.868 49.7223C71.5435 49.7223 71.2538 49.804 70.9989 49.9674C70.7441 50.129 70.5424 50.3677 70.3939 50.6836C70.2472 50.9976 70.1739 51.3841 70.1739 51.8432C70.1739 52.3022 70.2472 52.6897 70.3939 53.0055C70.5424 53.3195 70.7441 53.5582 70.9989 53.7217C71.2538 53.8832 71.5435 53.964 71.868 53.964C72.1907 53.964 72.4795 53.8832 72.7343 53.7217C72.991 53.5582 73.1927 53.3195 73.3394 53.0055C73.4879 52.6897 73.5622 52.3022 73.5622 51.8432Z" fill="#E51236"/>
<path d="M75.491 54.6637V49.0227H77.4986C77.935 49.0227 78.2971 49.098 78.585 49.2486C78.8747 49.3991 79.091 49.6075 79.2341 49.8738C79.3771 50.1382 79.4486 50.444 79.4486 50.791C79.4486 51.1362 79.3762 51.4401 79.2313 51.7027C79.0883 51.9634 78.8719 52.1664 78.5822 52.3114C78.2944 52.4565 77.9323 52.529 77.4959 52.529H75.975V51.7964H77.4189C77.6939 51.7964 77.9176 51.7569 78.0899 51.6779C78.2641 51.599 78.3916 51.4842 78.4722 51.3336C78.5529 51.183 78.5932 51.0022 78.5932 50.791C78.5932 50.578 78.552 50.3935 78.4695 50.2374C78.3888 50.0813 78.2614 49.9619 78.0872 49.8793C77.9148 49.7948 77.6884 49.7526 77.4079 49.7526H76.3408V54.6637H75.491ZM78.2715 52.1186L79.6631 54.6637H78.695L77.3309 52.1186H78.2715Z" fill="#E51236"/>
<path d="M84.3222 50.8048C84.269 50.6377 84.1975 50.488 84.1077 50.3558C84.0197 50.2218 83.9142 50.1079 83.7914 50.0143C83.6685 49.9188 83.5283 49.8463 83.3706 49.7967C83.2148 49.7471 83.0433 49.7223 82.8563 49.7223C82.5391 49.7223 82.2531 49.804 81.9982 49.9674C81.7434 50.1309 81.5417 50.3705 81.3932 50.6863C81.2465 51.0003 81.1731 51.385 81.1731 51.8404C81.1731 52.2976 81.2474 52.6842 81.3959 53C81.5444 53.3158 81.7479 53.5555 82.0065 53.7189C82.265 53.8823 82.5593 53.964 82.8893 53.964C83.1955 53.964 83.4623 53.9016 83.6896 53.7767C83.9188 53.6519 84.0957 53.4756 84.2204 53.2479C84.3469 53.0184 84.4102 52.7484 84.4102 52.4381L84.6302 52.4794H83.0186V51.7771H85.2325V52.4188C85.2325 52.8926 85.1317 53.3039 84.93 53.6528C84.7301 53.9999 84.4533 54.2679 84.0994 54.4571C83.7474 54.6462 83.344 54.7408 82.8893 54.7408C82.3796 54.7408 81.9322 54.6233 81.5472 54.3882C81.164 54.1532 80.8651 53.8199 80.6506 53.3884C80.4361 52.955 80.3288 52.4409 80.3288 51.8459C80.3288 51.396 80.3912 50.9921 80.5158 50.634C80.6405 50.2759 80.8156 49.972 81.0411 49.7223C81.2685 49.4707 81.5353 49.2788 81.8415 49.1466C82.1495 49.0126 82.4859 48.9456 82.8508 48.9456C83.1552 48.9456 83.4384 48.9906 83.7006 49.0805C83.9647 49.1705 84.1993 49.2981 84.4047 49.4634C84.6119 49.6287 84.7833 49.8251 84.919 50.0528C85.0547 50.2787 85.1464 50.5293 85.194 50.8048H84.3222Z" fill="#E51236"/>
</svg>
