<svg width="695" height="170" viewBox="0 0 695 170" fill="none" xmlns="http://www.w3.org/2000/svg">
<path d="M314.469 164.827C311.891 164.827 309.311 163.845 307.346 161.876L276.991 131.501C273.067 127.568 273.067 121.18 277.005 117.259C280.939 113.321 287.314 113.321 291.248 117.259L321.602 147.629C325.526 151.566 325.526 157.954 321.59 161.876C319.621 163.845 317.047 164.827 314.469 164.827Z" fill="#E51236"/>
<path d="M610.361 169.442C564.177 169.442 526.595 131.446 526.595 84.733C526.595 69.026 530.872 53.691 538.972 40.385C541.863 35.625 548.054 34.12 552.824 37.009C557.566 39.905 559.084 46.104 556.191 50.855C550.009 61.01 546.746 72.716 546.746 84.733C546.746 120.326 575.275 149.293 610.361 149.293C645.447 149.293 674.002 120.326 674.002 84.733C674.002 49.14 645.445 20.149 610.361 20.149C600.109 20.158 590.332 22.55 581.3 27.273C576.359 29.861 570.279 27.929 567.71 23.001C565.13 18.071 567.042 11.984 571.97 9.403C583.736 3.263 597.017 0.009 610.353 0C656.564 0 694.15 38.005 694.15 84.733C694.15 131.461 656.564 169.442 610.361 169.442Z" fill="#E51236"/>
<path d="M273.617 4.87695H201.834C197.649 4.87695 194.067 7.41895 192.543 11.044C191.996 12.29 191.681 13.658 191.681 15.101V154.465C191.681 160.034 196.186 164.542 201.756 164.542C207.326 164.542 211.83 160.034 211.83 154.465V25.031H273.617C290.508 25.031 304.256 38.771 304.256 55.675C304.256 72.5789 290.508 86.323 273.617 86.323H238.336C232.766 86.323 228.26 90.83 228.26 96.399C228.26 101.968 232.766 106.475 238.336 106.475H273.617C301.616 106.475 324.406 83.684 324.406 55.675C324.406 27.666 301.616 4.87695 273.617 4.87695Z" fill="#E51236"/>
<path d="M485.507 83.835H444.696C439.136 83.835 434.62 88.341 434.62 93.912C434.62 99.483 439.136 103.985 444.696 103.985H475.428V154.892C475.428 160.458 479.934 164.97 485.506 164.97C491.078 164.97 495.582 160.458 495.582 154.892V93.912C495.582 88.341 491.064 83.835 485.506 83.835" fill="#E51236"/>
<path d="M435.664 169.906C389.459 169.906 351.878 131.9 351.878 85.171C351.878 38.442 389.458 0.459961 435.664 0.459961C453.855 0.459961 471.164 6.26396 485.725 17.254C490.16 20.603 491.035 26.928 487.696 31.364C484.346 35.803 478.03 36.695 473.581 33.335C462.544 25.012 449.437 20.61 435.665 20.61C400.579 20.61 372.024 49.575 372.024 85.171C372.024 120.767 400.579 149.758 435.665 149.758C440.102 149.758 444.579 149.284 448.946 148.349C454.419 147.137 459.749 150.648 460.911 156.093C462.073 161.535 458.61 166.884 453.157 168.05C447.413 169.284 441.518 169.906 435.665 169.906" fill="#E51236"/>
<path d="M81.751 164.532C76.187 164.532 71.677 160.024 71.677 154.456V94.28C71.677 88.717 76.187 84.209 81.751 84.209C87.315 84.209 91.829 88.717 91.829 94.28V154.456C91.829 160.024 87.316 164.532 81.751 164.532Z" fill="#E51236"/>
<path d="M102.8 68.151C99.9129 68.151 97.0459 66.912 95.0559 64.525C91.4909 60.24 92.0789 53.896 96.3529 50.333L147.996 7.36001C152.269 3.79801 158.618 4.37401 162.178 8.66101C165.742 12.937 165.158 19.283 160.881 22.84L109.242 65.823C107.358 67.385 105.075 68.151 102.8 68.151Z" fill="#E51236"/>
<path d="M61.745 68.1511C59.471 68.1511 57.19 67.3851 55.307 65.8231L3.63198 22.8401C-0.644016 19.2931 -1.22902 12.9361 2.32798 8.66109C5.88398 4.38509 12.242 3.79809 16.519 7.36009L68.194 50.3331C72.467 53.8861 73.055 60.2401 69.498 64.5251C67.504 66.9121 64.633 68.1511 61.745 68.1511Z" fill="#E51236"/>
</svg>
