<svg width="355" height="25" viewBox="0 0 355 25" fill="none" xmlns="http://www.w3.org/2000/svg">
<path d="M193.676 2.0815C197.714 2.58584 201.356 5.33274 199.467 9.84236C198.174 12.9271 193.99 11.2525 193.433 13.735C198.339 13.0446 203.007 17.422 199.496 22.0149C198.755 22.9844 196.227 24.4191 195.123 24.4191H179.405V2.0815C183.908 2.48301 189.283 1.5331 193.671 2.0815H193.676ZM185.211 11.3064H192.223C194.62 11.3064 194.179 6.44913 192.707 6.44913H185.211V11.3064ZM185.211 20.5313H192.223C194.804 20.5313 195.642 15.1893 192.707 15.1893H185.211V20.5313Z" fill="black"/>
<path d="M163.454 13.7252L168.282 16.1637L169.275 11.3309L175.541 11.3064V15.1942L172.703 15.2578L171.313 18.842C172.18 20.3599 173.953 20.6831 175.541 20.5362L175.473 24.3456C173.279 26.5637 168.447 22.4213 167.648 22.5486C167.27 22.6074 165.88 23.7629 164.805 24.0763C160.743 25.271 152.215 25.4718 151.067 20.0661C149.92 14.6605 157.658 14.871 157.639 13.975C155.648 12.5403 153.368 11.7813 152.917 8.99527C151.15 -1.9042 174.413 0.818223 168.975 9.81298C167.415 12.3934 164.113 11.4092 163.454 13.7252ZM159.919 6.0672C156.985 6.95836 159.551 12.3004 161.658 11.7422C164.747 10.9245 165.231 4.45628 159.919 6.0672ZM164.418 20.0416L159.27 15.7181C153.542 19.4834 160.336 22.4948 164.418 20.0416Z" fill="black"/>
<path d="M79.7926 24.4191C78.4803 24.1791 74.5386 25.1046 74.0592 23.6209L74.4466 7.14932L79.7974 6.93387C80.0977 7.23745 79.1292 11.5071 80.5141 10.8167C82.4075 6.66947 86.3056 5.12709 90.2037 7.89847C91.2351 8.12371 91.7048 11.2917 92.6055 10.8167C93.1963 10.5034 93.5159 8.62804 94.8088 7.68303C97.7965 5.50901 103.975 6.98774 103.975 10.5768V24.4142H98.1742V12.0311C98.1742 11.9282 96.9588 10.6943 96.7119 10.5768C94.988 9.76891 91.8888 11.468 91.8888 13.0006V24.4093H86.0877V12.0262C86.0877 11.8891 84.6834 10.5279 84.2863 10.4103C82.4123 9.85705 79.7974 11.6638 79.7974 13.4853V24.4093L79.7926 24.4191Z" fill="black"/>
<path d="M243.726 0.627262V24.4191H237.92C237.639 24.14 238.559 19.7821 237.204 20.5411C235.669 24.7177 230.971 26.1132 227.301 23.6748C223.451 21.1189 223.383 11.561 226.56 8.39791C228.647 6.32182 232.628 5.85176 235.01 7.67813C236.313 8.67701 236.201 10.7923 237.92 10.8265V0.627262H243.726ZM233.446 10.4103C229.698 11.0861 228.923 17.7501 231.872 20.0514C238.651 25.3445 240.676 9.10789 233.446 10.4103Z" fill="black"/>
<path d="M127.645 20.5509C127.761 20.6635 127.747 23.1607 127.597 23.6209C127.199 24.8646 123.035 24.5757 121.834 24.1987C119.887 23.5867 119.563 21.114 119.195 21.016C118.26 20.7614 118.227 22.4115 117.476 23.1705C113.423 27.2345 104.31 23.7482 107.113 17.1332C109.215 12.1878 116.595 13.3188 119.437 17.1332C119.544 13.9358 120.081 10.2781 115.805 10.3173C113.5 10.3369 113.074 12.2955 111.849 12.6627C110.435 13.0887 108.387 12.5795 106.866 12.7606C106.716 5.43556 120.318 4.98509 123.795 9.11769C126.4 12.2122 124.638 16.433 125.446 20.0808L127.635 20.5509H127.645ZM119.379 17.6816C118.507 16.3057 111.622 16.2371 112.726 19.7234C113.529 22.2646 121.553 21.1091 119.379 17.6816Z" fill="black"/>
<path d="M26.4926 6.58133C34.4147 5.85666 39.5961 10.9734 37.4896 19.0917C35.4946 26.7791 19.2097 27.0925 17.9313 17.8236C17.0548 11.4435 20.0038 7.1787 26.4878 6.58623L26.4926 6.58133ZM30.812 11.4435C25.5532 6.17003 20.0426 17.9753 26.236 20.6488C31.5626 22.9501 33.6593 14.2981 30.812 11.4435Z" fill="black"/>
<path d="M210.726 6.57643C215.403 6.00845 220.909 7.86909 222.12 12.8537C225.456 26.6078 206.232 28.2187 202.871 19.5569C200.363 13.0789 203.99 7.39414 210.726 6.58133V6.57643ZM211.694 10.4299C206.29 11.2085 206.808 21.6379 212.972 21.0111C218.251 20.4725 217.921 9.52899 211.694 10.4299Z" fill="black"/>
<path d="M251.949 16.6484C252.133 21.4763 258.5 22.7396 260.21 18.1222L264.994 20.2914C259.624 28.1599 245.62 26.0055 246.123 14.9347C246.627 3.86381 265.197 4.0107 265.507 14.494C265.527 15.0962 265.42 16.6533 264.766 16.6533H251.953L251.949 16.6484ZM259.687 14.2198C259.299 8.80921 252.864 9.32334 251.949 14.2198H259.687Z" fill="black"/>
<path d="M309.873 6.59112C324.168 5.05854 325.524 23.6405 312.58 24.8597C298.493 26.1818 296.92 7.98171 309.873 6.59112ZM314.178 11.4582C308.624 6.26306 303.602 18.0439 309.616 20.6488C314.958 22.9599 317.582 14.6458 314.178 11.4582Z" fill="black"/>
<path d="M147.494 24.4191L141.901 23.9637C141.112 22.8228 142.09 14.7633 141.678 12.5354C140.947 8.58397 134.918 10.7286 134.918 13.0104V24.4191H129.117V6.93877H134.923C135.204 7.21787 134.284 11.5806 135.64 10.8167C137.083 6.64498 142.371 5.00957 145.818 7.89358C146.361 8.34405 147.494 10.0235 147.494 10.5768V24.4191Z" fill="black"/>
<path d="M354.951 12.2759C353.367 12.0213 350.902 12.6382 349.488 12.2906C348.951 12.1584 348.917 11.1252 348.476 10.7874C346.167 9.04424 341.048 11.2183 343.668 12.8096C346.549 14.5576 354.588 12.5697 354.985 18.3573C355.566 26.7547 339.537 26.691 336.584 20.2816C336.366 19.1358 337.102 19.6989 337.77 19.552C338.506 19.3904 341.363 18.6021 341.615 18.6608C342.273 18.8273 342.491 20.5264 344.176 20.9132C346.176 21.3735 349.978 21.6134 349.111 18.6315C344.564 17.1723 335.363 17.8872 337.765 10.3075C339.431 5.06343 354.752 4.9753 354.956 12.2759H354.951Z" fill="black"/>
<path d="M53.1935 19.5667L58.2295 18.5776C58.9607 21.7456 67.1879 22.3528 65.4834 18.5384C60.8444 17.2213 52.6075 17.9362 54.2636 10.6796C55.4791 5.36212 67.9724 5.21522 70.7955 9.89622C70.9601 10.1704 71.5606 11.4631 71.5509 11.5561C71.4734 12.5109 66.9264 12.4962 66.079 12.2024C65.2316 11.9087 65.4011 10.5964 64.0791 10.332C62.9363 10.1019 59.7742 10.1998 59.4837 11.5659C58.859 14.5038 70.5049 12.0849 71.4589 17.9851C72.8583 26.6078 54.9561 27.2198 53.1886 19.5618L53.1935 19.5667Z" fill="black"/>
<path d="M16.9241 2.0815V6.45402H5.80116V11.7911H15.4762V15.6789H5.80116V24.4191H0V2.0815H16.9241Z" fill="black"/>
<path d="M290.634 10.8216H287.729L287.942 7.38924L290.634 6.93877C290.155 0.323683 295.443 -0.386301 300.789 0.137618V4.51014C299.37 4.05966 298.29 3.82464 297.138 4.9802C294.034 8.10412 300.382 6.52747 300.789 6.93387V10.8216H296.435V24.4191H290.634V10.8216Z" fill="black"/>
<path d="M45.9444 6.93877V11.796H47.3923C46.9952 8.25591 49.3777 6.51278 52.7092 6.45402V11.796C50.8062 11.0126 45.9396 12.7949 45.9396 14.9493V24.4191H40.6178V6.93877H45.9444Z" fill="black"/>
<path d="M329.325 6.93877C329.398 7.82992 328.928 12.2759 330.046 12.271C331.058 11.4435 330.671 10.1312 331.141 9.00996C331.945 7.07097 334.196 6.57643 336.09 6.45892V11.8009C333.722 11.0958 329.32 12.6921 329.32 15.439V24.424H323.998V6.93877H329.325Z" fill="black"/>
<path d="M267.904 6.93877H273.226L273.308 10.0137L274.669 10.8265C275.236 4.48566 286.281 5.60694 286.281 11.5561V24.424H280.48V12.5256C280.48 10.523 276.083 9.44085 274.451 11.326C274.238 11.5708 273.226 13.8379 273.226 13.9847V24.424H267.904V6.93877Z" fill="black"/>
</svg>
