<svg width="140" height="29" viewBox="0 0 140 29" fill="none" xmlns="http://www.w3.org/2000/svg">
<g id="Grebban">
<path d="M25.1429 8.80327H19.7341C18.9832 4.26638 13.514 3.38983 9.85509 5.09477C4.4113 7.63132 4.1345 17.328 7.47522 21.653C11.6941 27.1146 20.8031 24.7321 20.6854 17.4725H14.0039V13.6195H25.4578V28.3893L22.2539 28.2512L21.6367 24.8606C20.6631 24.7707 20.4722 25.9458 19.8868 26.4628C14.8916 30.8584 6.79753 29.147 2.87457 24.0482C-2.79511 16.673 0.0683658 1.88395 10.1732 0.278543C17.1379 -0.82919 23.6316 1.23858 25.1429 8.80327Z" fill="black"/>
<path d="M64.9133 0.455138V11.0508C72.4379 3.4123 80.0961 10.0394 79.5616 19.5756C79.0812 28.187 70.9139 32.3097 64.9133 25.8206V28.3893H60.1377V0.455138H64.9133ZM66.6155 23.7817C66.94 24.09 67.6782 24.5331 68.1013 24.6904C76.0268 27.6829 76.52 13.475 71.827 11.9402C64.5825 9.56745 63.0075 20.3686 66.6155 23.7817Z" fill="black"/>
<path d="M85.9121 0.455138V11.0508C90.1851 5.9039 97.3247 6.96026 99.7491 13.3016C102.982 21.7589 97.7701 32.5666 87.9834 27.7439L85.9153 25.4995V28.3861H81.4579V0.455138H85.9121ZM91.165 11.5517C83.8982 11.4105 84.2895 24.9794 90.8755 25.1496C97.4615 25.3197 97.5888 11.677 91.165 11.5517Z" fill="black"/>
<path d="M58.5501 19.399H43.9145C43.9336 23.6597 47.0516 26.1192 51.2418 25.0275C52.839 24.6101 52.8677 23.4478 53.5963 22.9084C54.538 22.2117 56.9974 22.7992 58.2319 22.613C56.9306 27.9622 52.1804 29.1727 47.2425 28.7232C37.3381 27.8242 36.1577 11.1761 45.8235 8.32165C53.6472 6.00986 59.005 11.7123 58.5501 19.399ZM53.7776 16.5092C53.4785 9.42296 44.5222 9.65414 43.9145 16.5092H53.7776Z" fill="black"/>
<path d="M103.093 14.2617C102.899 7.40335 114.089 6.01949 117.884 9.76973C121.537 13.3755 118.269 23.7625 120.271 28.3893L115.813 28.2352L115.024 25.8238C110.805 31.6611 99.1128 28.5948 102.539 20.2884C104.404 15.7708 113.137 17.5592 114.69 15.2024C115.26 14.3387 114.973 12.5567 114.219 11.8632C112.406 10.2 107.175 11.0862 107.547 14.2617H103.093ZM115.18 18.1147C112.896 19.7746 107.035 19.0265 106.768 22.5616C106.469 26.5238 112.587 26.2766 114.372 23.557C115.46 21.897 115.171 20.0026 115.18 18.1147Z" fill="black"/>
<path d="M140 28.3893H135.228V14.4222C135.228 14.2167 134.254 12.7365 133.949 12.5021C131.998 10.9995 128.883 11.738 127.639 13.8282C127.512 14.0401 126.955 15.2988 126.955 15.3855V28.3893H122.183V8.48219H126.955L127.114 11.0541C129.52 6.65523 137.159 6.6167 139.281 11.2949C139.405 11.5646 140 13.3466 140 13.459V28.3893Z" fill="black"/>
<path d="M32.1425 8.48219L32.2984 11.6898C34.1087 8.93812 36.0718 7.69554 39.4602 8.1579V12.3352C37.3444 12.1522 34.7355 12.5567 33.466 14.4736C33.2879 14.7433 32.4606 16.5349 32.4606 16.6698V28.3893H27.6882V8.48219H32.1425Z" fill="black"/>
</g>
</svg>
