<svg width="233" height="24" viewBox="0 0 233 24" fill="none" xmlns="http://www.w3.org/2000/svg">
<path d="M23.8289 0H18.6834C18.1902 0 17.9231 0.273212 17.9231 0.755603V9.12273H6.66617V0.755603C6.66617 0.273212 6.37027 0 5.87297 0H0.760322C0.26303 0 0 0.273212 0 0.755603V23.2444C0 23.7225 0.26303 24 0.760322 24H5.87708C6.37027 24 6.67028 23.7268 6.67028 23.2444V14.6382H17.9272V23.2444C17.9272 23.7225 18.1902 24 18.6875 24H23.8371C24.3303 24 24.5974 23.7268 24.5974 23.2444V0.755603C24.5892 0.273212 24.3262 0 23.8289 0Z" fill="#232424"/>
<path d="M78.6461 11.8975C81.186 11.381 82.3079 9.70331 82.3079 6.54856V5.48559C82.3079 1.64781 80.6558 0 76.7966 0H58.9763C58.4832 0 58.216 0.273212 58.216 0.755603V23.2444C58.216 23.7225 58.479 24 58.9763 24H77.1295C81.0257 24 82.6408 22.3522 82.6408 18.5144V17.2465C82.6408 13.9552 81.4531 12.3074 78.6461 11.8975ZM64.8863 5.51974H73.8951C75.1815 5.51974 75.6459 5.96371 75.6459 7.20171V7.54322C75.6459 8.77695 75.1856 9.22519 73.8951 9.22519H64.8863V5.51974ZM75.9747 16.7983C75.9747 18.032 75.5144 18.4803 74.191 18.4803H64.8822V14.5699H74.191C75.5103 14.5699 75.9747 15.0139 75.9747 16.2519V16.7983Z" fill="#232424"/>
<path d="M109.606 0H87.922C87.4288 0 87.1617 0.273212 87.1617 0.755603V23.2444C87.1617 23.7225 87.4247 24 87.922 24H109.606C110.099 24 110.366 23.7268 110.366 23.2444V19.2316C110.366 18.7535 110.103 18.476 109.606 18.476H93.8279V14.5315H107.029C107.489 14.5315 107.789 14.2583 107.789 13.7759V10.0064C107.789 9.52828 107.493 9.2508 107.029 9.2508H93.8279V5.51547H109.606C110.099 5.51547 110.366 5.24226 110.366 4.75987V0.747065C110.366 0.273212 110.099 0 109.606 0Z" fill="#232424"/>
<path d="M133.862 16.0811H133.961C137.857 16.0811 139.472 14.0918 139.472 10.254V5.48559C139.472 1.64781 137.853 0 133.961 0H115.972C115.479 0 115.211 0.273212 115.211 0.755603V23.2444C115.211 23.7225 115.474 24 115.972 24H121.088C121.582 24 121.882 23.7268 121.882 23.2444V16.4226H126.501L132.177 23.4152C132.539 23.8591 132.806 24 133.43 24H139.932C140.294 24 140.458 23.556 140.195 23.2444L133.862 16.0811ZM132.806 8.94771C132.806 10.5955 132.51 10.9029 130.595 10.9029H121.882V5.51974H130.595C132.51 5.51974 132.806 5.82711 132.806 7.47492V8.94771Z" fill="#232424"/>
<path d="M174.985 0H165.709C165.113 0 164.752 0.239061 164.62 0.721451L159.935 16.7641L155.25 0.721451C155.118 0.24333 154.756 0 154.16 0H145.082C144.589 0 144.321 0.273212 144.321 0.755603V23.2444C144.321 23.7225 144.584 24 145.082 24H149.701C150.166 24 150.462 23.7268 150.462 23.2444V5.58805L155.907 23.2785C156.039 23.7567 156.372 24 156.963 24H162.606C163.202 24 163.564 23.7609 163.695 23.2785L169.075 5.72465V23.2444C169.075 23.7225 169.338 24 169.835 24H174.985C175.478 24 175.745 23.7268 175.745 23.2444V0.755603C175.745 0.273212 175.478 0 174.985 0Z" fill="#232424"/>
<path d="M232.876 23.2444L224.69 11.8634L232.679 0.755603C232.909 0.414088 232.745 0 232.383 0H226.243C225.713 0 225.417 0.102455 225.121 0.584845L220.3 7.8207L215.516 0.584845C215.22 0.102455 214.957 0 214.427 0H207.958C207.597 0 207.428 0.409819 207.662 0.755603L215.615 11.8634L207.465 23.2444C207.202 23.5859 207.399 24 207.761 24H213.901C214.431 24 214.694 23.8975 215.023 23.4152L220.008 15.9061L225.027 23.4152C225.322 23.8933 225.622 24 226.116 24H232.585C232.946 24 233.144 23.5859 232.876 23.2444Z" fill="#232424"/>
<path d="M46.2399 0.721451C46.0385 0.239061 45.7426 0 45.1837 0H37.6585C37.0626 0 36.7338 0.239061 36.5694 0.721451L27.4908 23.2102C27.3264 23.6542 27.5237 24 27.9511 24H33.3966C33.9597 24 34.2885 23.7609 34.4529 23.2785L41.2506 5.07577L48.0852 23.2785C48.2496 23.7567 48.5455 24 49.1415 24H54.8829C55.2775 24 55.4789 23.6585 55.3103 23.2102L46.2399 0.721451Z" fill="#232424"/>
<path d="M196.837 0.721451C196.64 0.24333 196.344 0 195.781 0H188.256C187.66 0 187.331 0.239061 187.167 0.721451L178.088 23.2102C177.924 23.6542 178.121 24 178.548 24H183.994C184.557 24 184.886 23.7609 185.05 23.2785L191.848 5.07577L198.678 23.2785C198.843 23.7567 199.139 24 199.735 24H205.476C205.871 24 206.072 23.6585 205.903 23.2102L196.837 0.721451Z" fill="#232424"/>
</svg>
