<svg width="97" height="28" viewBox="0 0 97 28" fill="none" xmlns="http://www.w3.org/2000/svg">
<g id="Halmstad">
<path d="M0 3.57722C0 3.4167 0.161047 3.25619 0.322092 3.25619H1.4264C1.61045 3.25619 1.74849 3.4167 1.74849 3.57722V8.25512H7.91421V3.57722C7.91421 3.4167 8.05224 3.25619 8.2363 3.25619H9.3406C9.50165 3.25619 9.66269 3.4167 9.66269 3.57722V14.6987C9.66269 14.8592 9.50165 15.0197 9.3406 15.0197H8.2363C8.05224 15.0197 7.91421 14.8592 7.91421 14.6987V9.83735H1.74849V14.6987C1.74849 14.8592 1.61045 15.0197 1.4264 15.0197H0.322092C0.161047 15.0197 0 14.8592 0 14.6987V3.57722Z" fill="#232424"/>
<path d="M18.497 0.940165C18.497 0.412755 18.9112 0 19.4403 0C19.9695 0 20.4066 0.412755 20.4066 0.940165C20.4066 1.46758 19.9695 1.90326 19.4403 1.90326C18.9112 1.90326 18.497 1.44464 18.497 0.940165ZM14.655 0.940165C14.655 0.412755 15.0691 0 15.5982 0C16.1274 0 16.5645 0.412755 16.5645 0.940165C16.5645 1.46758 16.1274 1.90326 15.5982 1.90326C15.0691 1.90326 14.655 1.44464 14.655 0.940165ZM17.5078 13.5063C19.9234 13.5063 21.879 11.5572 21.879 9.14942C21.879 6.74168 19.9004 4.76962 17.5078 4.76962C15.1151 4.76962 13.1366 6.76461 13.1366 9.14942C13.1596 11.5572 15.1151 13.5063 17.5078 13.5063ZM17.5078 3.09567C20.8667 3.09567 23.5815 5.80151 23.5815 9.14942C23.5815 12.4973 20.8897 15.1802 17.5078 15.1802C14.1258 15.1802 11.4571 12.5203 11.4571 9.14942C11.4571 5.77858 14.1488 3.09567 17.5078 3.09567Z" fill="#232424"/>
<path d="M30.7135 3.09567C32.3239 3.09567 33.6583 3.69187 34.8086 4.65497C34.9466 4.79255 34.9696 4.99893 34.8316 5.11359C34.5785 5.38876 34.3255 5.641 34.0724 5.89324C33.9344 6.05375 33.7963 6.03082 33.6353 5.8703C32.8531 5.18238 31.7948 4.72376 30.7825 4.72376C28.3898 4.72376 26.5493 6.74168 26.5493 9.08063C26.5493 11.4196 28.3898 13.4375 30.7825 13.4375C32.1859 13.4375 33.1521 12.933 33.3132 12.8642V10.9839H31.6567C31.4727 10.9839 31.3346 10.8463 31.3346 10.6858V9.72269C31.3346 9.53924 31.4727 9.40166 31.6567 9.40166H34.7166C34.8776 9.40166 35.0157 9.56218 35.0157 9.72269C35.0157 11.0756 35.0387 12.4515 35.0387 13.7815C35.0387 13.8732 34.9696 14.0108 34.9006 14.0566C34.9006 14.0566 33.1751 15.1573 30.7135 15.1573C27.3545 15.1573 24.6398 12.4973 24.6398 9.12649C24.6398 5.80151 27.3545 3.09567 30.7135 3.09567Z" fill="#232424"/>
<path d="M36.419 13.3228C36.5801 13.0935 36.6951 12.8413 36.8562 12.6349C37.0172 12.4056 37.2473 12.3597 37.4313 12.4973C37.5234 12.589 38.8347 13.6668 40.1231 13.6668C41.2964 13.6668 42.0326 12.9559 42.0326 12.1075C42.0326 11.0985 41.1584 10.4565 39.4789 9.76855C37.7534 9.05769 36.419 8.16339 36.419 6.21427C36.419 4.90721 37.4313 3.1186 40.1001 3.1186C41.7795 3.1186 43.0449 3.98997 43.2059 4.10463C43.344 4.19635 43.482 4.42566 43.298 4.6779C43.1599 4.88428 43.0219 5.11359 42.8838 5.31996C42.7458 5.54927 42.5388 5.641 42.2857 5.48048C42.1707 5.41169 40.9973 4.63204 40.008 4.63204C38.5816 4.63204 38.0985 5.52634 38.0985 6.14548C38.0985 7.10857 38.8347 7.68184 40.2381 8.25511C42.1937 9.03476 43.8501 9.97493 43.8501 12.0158C43.8501 13.7585 42.2857 15.1802 40.1001 15.1802C38.0525 15.1802 36.7411 14.1025 36.4881 13.8502C36.373 13.7127 36.235 13.598 36.419 13.3228Z" fill="#232424"/>
<path d="M45.7366 3.66894C45.7366 3.43963 45.8977 3.25619 46.1507 3.25619H47.117C47.3471 3.25619 47.5311 3.43963 47.5311 3.66894V8.32391L52.2705 3.43963C52.3395 3.34791 52.4545 3.27912 52.5925 3.27912H53.8579C54.157 3.27912 54.318 3.62308 54.088 3.87532L49.2106 8.80546L54.364 14.4694C54.5021 14.6299 54.41 15.0197 54.065 15.0197H52.7076C52.5465 15.0197 52.4315 14.9509 52.4085 14.9051L47.5081 9.40166V14.6299C47.5081 14.8592 47.3241 15.0427 47.094 15.0427H46.1277C45.8977 15.0427 45.7136 14.8592 45.7136 14.6299V3.66894H45.7366Z" fill="#232424"/>
<path d="M60.4147 13.5063C62.8304 13.5063 64.7859 11.5572 64.7859 9.14942C64.7859 6.74168 62.8074 4.76962 60.4147 4.76962C58.0221 4.76962 56.0435 6.76461 56.0435 9.14942C56.0435 11.5342 58.0221 13.5063 60.4147 13.5063ZM60.4147 3.09567C63.7737 3.09567 66.4884 5.80151 66.4884 9.14942C66.4884 12.4973 63.7967 15.1802 60.4147 15.1802C57.0328 15.1802 54.3641 12.5203 54.3641 9.14942C54.3641 5.77858 57.0558 3.09567 60.4147 3.09567Z" fill="#232424"/>
<path d="M68.398 3.57722C68.398 3.4167 68.536 3.25619 68.72 3.25619H69.8244C69.9854 3.25619 70.1464 3.4167 70.1464 3.57722V13.4604H74.7017C74.8858 13.4604 75.0238 13.6209 75.0238 13.7815V14.6987C75.0238 14.8592 74.8858 15.0197 74.7017 15.0197H68.697C68.513 15.0197 68.375 14.8592 68.375 14.6987V3.57722H68.398Z" fill="#232424"/>
<path d="M82.892 11.0298L80.8214 6.42065H80.7294L78.6818 11.0298H82.892ZM75.2539 14.584L80.4303 3.27912C80.4763 3.18739 80.6374 3.09567 80.7064 3.09567H80.8674C80.9595 3.09567 81.0975 3.18739 81.1435 3.27912L86.2739 14.584C86.366 14.8133 86.2509 15.0197 85.9979 15.0197H84.9396C84.7325 15.0197 84.6175 14.928 84.5485 14.7675L83.5132 12.4744H78.0146C77.6695 13.254 77.3244 14.0108 76.9793 14.7675C76.9333 14.8821 76.7953 15.0197 76.5882 15.0197H75.5299C75.2999 15.0197 75.1618 14.7904 75.2539 14.584Z" fill="#232424"/>
<path d="M87.1942 3.39377C87.1942 3.23325 87.3552 3.09567 87.5163 3.09567H87.9304L95.2464 11.5342H95.2694V3.60015C95.2694 3.43963 95.4075 3.27912 95.5915 3.27912H96.6728C96.8339 3.27912 96.9949 3.43963 96.9949 3.60015V14.9051C96.9949 15.0656 96.8339 15.2032 96.6728 15.2032H96.2357L88.9197 6.5353H88.8967V14.7216C88.8967 14.8821 88.7586 15.0427 88.5746 15.0427H87.5163C87.3552 15.0427 87.1942 14.8821 87.1942 14.7216V3.39377Z" fill="#232424"/>
<path d="M15.3452 19.4224C15.3452 19.3078 15.4602 19.1931 15.5752 19.1931H16.4035C16.5185 19.1931 16.6335 19.3078 16.6335 19.4224V27.6088C16.6335 27.7234 16.5185 27.8381 16.4035 27.8381H15.5752C15.4602 27.8381 15.3452 27.7234 15.3452 27.6088V19.4224Z" fill="#232424"/>
<path d="M21.3498 19.4224C21.3498 19.3078 21.4649 19.1931 21.5799 19.1931H22.4081C22.5462 19.1931 22.6382 19.3078 22.6382 19.4224V22.8621H27.1705V19.4224C27.1705 19.3078 27.2625 19.1931 27.4005 19.1931H28.2288C28.3438 19.1931 28.4588 19.3078 28.4588 19.4224V27.6088C28.4588 27.7234 28.3438 27.8381 28.2288 27.8381H27.4235C27.2855 27.8381 27.1935 27.7234 27.1935 27.6088V24.0316H22.6612V27.6088C22.6612 27.7234 22.5692 27.8381 22.4311 27.8381H21.6029C21.4879 27.8381 21.3728 27.7234 21.3728 27.6088V19.4224H21.3498Z" fill="#232424"/>
<path d="M35.1077 24.9029L33.5893 21.5092H33.5202L32.0018 24.9029H35.1077ZM29.4941 27.517L33.2902 19.1931C33.3362 19.1243 33.4282 19.0556 33.4972 19.0556H33.6123C33.6813 19.0556 33.7963 19.1243 33.8193 19.1931L37.5924 27.517C37.6614 27.6776 37.5694 27.8381 37.3853 27.8381H36.6031C36.4651 27.8381 36.373 27.7693 36.327 27.6546L35.5678 25.9577H31.5187C31.2656 26.531 31.0125 27.0814 30.7595 27.6546C30.7135 27.7464 30.6214 27.8381 30.4834 27.8381H29.7012C29.5171 27.8381 29.4251 27.6776 29.4941 27.517Z" fill="#232424"/>
<path d="M38.6737 19.4224C38.6737 19.3078 38.7657 19.1931 38.9037 19.1931H39.732C39.847 19.1931 39.962 19.3078 39.962 19.4224V26.6915H43.321C43.459 26.6915 43.551 26.8062 43.551 26.9208V27.6088C43.551 27.7234 43.459 27.8381 43.321 27.8381H38.9037C38.7657 27.8381 38.6737 27.7234 38.6737 27.6088V19.4224Z" fill="#232424"/>
<path d="M45.5848 19.2528C45.6078 19.161 45.6998 19.0693 45.8149 19.0693H46.0219C46.0909 19.0693 46.206 19.1381 46.229 19.2069L48.8287 25.5129H48.8747L51.4514 19.2069C51.4744 19.1381 51.5665 19.0693 51.6585 19.0693H51.8656C51.9576 19.0693 52.0726 19.161 52.0956 19.2528L53.614 27.5537C53.6601 27.7372 53.568 27.8289 53.384 27.8289H52.5788C52.4637 27.8289 52.3717 27.7372 52.3487 27.6455L51.4284 22.1191H51.3824L49.1508 27.806C49.1278 27.8748 49.0588 27.9436 48.9437 27.9436H48.7137C48.6217 27.9436 48.5296 27.8748 48.5066 27.806L46.252 22.1191H46.206L45.3087 27.6684C45.3087 27.7601 45.1937 27.8518 45.0787 27.8518H44.2734C44.0894 27.8518 44.0204 27.7372 44.0434 27.5767L45.5848 19.2528Z" fill="#232424"/>
<path d="M54.6355 26.5906C54.7506 26.4301 54.8426 26.2467 54.9576 26.0862C55.0726 25.9256 55.2337 25.8798 55.3717 25.9944C55.4407 26.0632 56.407 26.8429 57.3503 26.8429C58.2015 26.8429 58.7537 26.3155 58.7537 25.6963C58.7537 24.9625 58.1095 24.481 56.8901 23.9765C55.6248 23.4491 54.6355 22.7841 54.6355 21.3624C54.6355 20.3993 55.3717 19.0693 57.3503 19.0693C58.5926 19.0693 59.5129 19.7114 59.6509 19.8031C59.7429 19.8719 59.858 20.0324 59.7199 20.2159C59.6279 20.3534 59.5129 20.5369 59.4209 20.6745C59.3288 20.835 59.1678 20.9038 58.9837 20.7891C58.8917 20.7433 58.0405 20.17 57.3043 20.17C56.269 20.17 55.9009 20.835 55.9009 21.2707C55.9009 21.9815 56.453 22.4172 57.4653 22.83C58.9147 23.4032 60.1341 24.0912 60.1341 25.6046C60.1341 26.8887 58.9837 27.9436 57.3733 27.9436C55.8549 27.9436 54.9116 27.1639 54.7045 26.9575C54.6125 26.8887 54.5205 26.797 54.6355 26.5906Z" fill="#232424"/>
<path d="M60.8058 20.3626C60.6678 20.3626 60.5758 20.248 60.5758 20.1333V19.4454C60.5758 19.3307 60.6678 19.2161 60.8058 19.2161H66.1433C66.2814 19.2161 66.3734 19.3307 66.3734 19.4454V20.1333C66.3734 20.248 66.2814 20.3626 66.1433 20.3626H64.1188V27.6088C64.1188 27.7234 64.0037 27.8381 63.8887 27.8381H63.0835C62.9684 27.8381 62.8534 27.7234 62.8534 27.6088V20.3626H60.8058Z" fill="#232424"/>
<path d="M71.2738 24.9029L69.7553 21.5092H69.6863L68.1679 24.9029H71.2738ZM65.6602 27.517L69.4562 19.1931C69.5023 19.1243 69.5943 19.0556 69.6633 19.0556H69.7783C69.8474 19.0556 69.9624 19.1243 69.9854 19.1931L73.7585 27.517C73.8275 27.6776 73.7354 27.8381 73.5514 27.8381H72.7692C72.6311 27.8381 72.5391 27.7693 72.4931 27.6546L71.7339 25.9577H67.6848C67.4317 26.531 67.1786 27.0814 66.9255 27.6546C66.8795 27.7464 66.7875 27.8381 66.6495 27.8381H65.8673C65.6832 27.8381 65.5912 27.6776 65.6602 27.517Z" fill="#232424"/>
<path d="M77.7156 26.6686C79.5331 26.6686 80.8674 25.3386 80.8674 23.5041C80.8674 21.6697 79.5331 20.3626 77.7156 20.3626H76.0821V26.6686H77.7156ZM74.8167 19.4224C74.8167 19.3078 74.9088 19.1931 75.0468 19.1931H77.8996C80.2923 19.1931 82.2478 21.1423 82.2478 23.5041C82.2478 25.866 80.2923 27.8381 77.8996 27.8381H75.0468C74.9318 27.8381 74.8167 27.7234 74.8167 27.6088V19.4224Z" fill="#232424"/>
</g>
</svg>
