<svg width="64" height="30" viewBox="0 0 64 30" fill="none" xmlns="http://www.w3.org/2000/svg">
<g id="HiQ">
<path d="M26.6119 5.34132C24.7778 5.74566 23.0339 9.94676 23.7201 11.4792C24.1692 12.484 25.4829 13.2199 26.2992 12.114C26.5993 11.7077 28.7315 6.79088 28.7713 6.39059C28.8973 5.15937 27.6108 5.12298 26.6119 5.34335V5.34132Z" fill="#E9E9E9"/>
<path d="M46.609 14.3924L61.2969 13.5878C61.6515 13.8466 61.2717 13.9557 60.9842 13.9901C58.7324 14.263 56.1617 13.9962 54.0253 14.5683C53.742 14.6431 53.3853 14.6512 53.3223 15.0009L62.4427 14.3863C62.8456 14.4045 64.3377 14.7786 63.9285 15.4134C63.6829 15.6317 63.3975 15.749 63.0681 15.7995C61.2087 16.0846 58.6988 15.8602 56.787 16.0158C52.8166 16.3413 48.8964 17.1217 44.9742 17.7646C42.3741 21.8343 37.2599 27.7983 31.6525 26.8825C30.1604 26.6399 29.2287 25.5502 28.7313 24.2381C28.5089 23.6518 28.3766 22.0082 28.0073 21.8909C26.9055 21.5452 22.3307 24.319 20.7085 24.0945C19.8523 23.9753 18.7148 22.3923 18.7589 21.6038C18.7946 20.9488 20.5574 17.5806 20.3748 17.429L16.4946 18.0355C14.8912 21.2702 14.1022 25.0953 12.4359 28.2774C10.7424 31.5162 9.13278 29.6542 8.62493 27.0483L11.7707 19.0464C11.5671 18.8927 7.28814 20.3423 6.93768 20.7567C6.29342 21.5169 5.5883 24.2664 5.02588 25.3844C4.44458 26.5408 4.14239 27.7619 2.64191 26.7268C0.572725 25.2995 2.69857 23.0291 2.32923 22.6854C1.15403 22.7804 -0.470263 21.717 0.12573 20.4656C0.627288 19.4143 3.8339 18.7391 4.72159 17.4108C6.45081 14.8251 7.28814 6.42085 11.0614 6.11355C11.9679 6.03875 12.3982 6.30561 12.1904 7.21336L9.04254 16.0118L13.395 14.7482L18.3686 3.06281C18.654 1.69007 22.2803 1.09771 22.6538 2.19954L22.679 2.75146L18.484 13.9901C20.7903 13.8001 22.6958 13.5878 24.6769 14.9989C25.2393 16.6507 23.5961 17.8879 23.5227 19.4487L28.4501 17.8293C29.8918 12.1867 35.2998 1.09771 41.9376 0.088886C49.7988 -1.10594 48.6908 9.99522 46.609 14.3924ZM41.7319 15.1546C42.7581 12.5567 45.2932 7.55098 43.757 4.90862C41.9544 1.80733 38.1014 6.3602 36.9934 7.8603C35.6335 9.70005 32.7752 14.5521 32.7501 16.7153C32.7459 17.0509 32.6976 17.0509 33.0564 17.0105C35.8454 16.6951 38.9471 15.6762 41.7319 15.1526V15.1546ZM39.264 19.0464C38.9744 18.8361 32.727 20.3584 32.1834 20.6172C32.0281 20.692 31.8036 20.7628 31.7721 20.9548C32.8214 26.092 37.7488 21.2642 39.264 19.0464Z" fill="black"/>
<path d="M26.6119 5.34132C27.6108 5.12096 28.8972 5.15937 28.7713 6.38857C28.7294 6.79088 26.5993 11.7077 26.2992 12.112C25.4829 13.2199 24.1692 12.482 23.7201 11.4772C23.0339 9.94271 24.7757 5.74364 26.6119 5.3393L26.6119 5.34132Z" fill="black"/>
</g>
</svg>
