<svg width="165" height="23" viewBox="0 0 165 23" fill="none" xmlns="http://www.w3.org/2000/svg">
<g id="Humblebee">
<path d="M17.4089 0V22.6722H12.9921V13.3766H4.41681V22.6722H0V0H4.41681V9.06887H12.989V0H17.4089Z" fill="#232424"/>
<path d="M37.3297 14.6082C37.3297 15.8613 37.1429 17.0041 36.7694 18.0428C36.3741 19.0783 35.8014 19.9638 35.0543 20.6991C34.3073 21.4344 33.3953 21.9951 32.3183 22.3842C31.2414 22.7947 30.0088 23 28.6268 23C27.2448 23 26.0122 22.7947 24.9352 22.3842C23.8582 21.9951 22.9462 21.4344 22.1992 20.6991C21.4522 19.9638 20.8919 19.0783 20.5184 18.0428C20.1231 17.0072 19.9239 15.8613 19.9239 14.6082V0H24.3407V14.6082C24.3407 15.9257 24.7578 16.9306 25.592 17.62C26.4044 18.3338 27.416 18.6892 28.6268 18.6892C29.8376 18.6892 30.8585 18.3338 31.6927 17.62C32.5051 16.9275 32.9128 15.9257 32.9128 14.6082V0H37.3297V14.6082Z" fill="#232424"/>
<path d="M44.2085 8.42241V22.6722H39.8229V0H44.2397L49.9451 11.6609L55.6505 0H60.0673V22.6722H55.6817V8.42241L51.6913 16.5844H48.1958L44.2054 8.42241H44.2085Z" fill="#232424"/>
<path d="M72.4369 0C74.79 0 76.5922 0.594379 77.8435 1.78007C79.0979 2.96883 79.7235 4.54363 79.7235 6.50753C79.7235 7.45731 79.5586 8.3213 79.2286 9.09951C78.8769 9.89916 78.3478 10.5579 77.6474 11.0757C78.4598 11.6792 79.1104 12.4023 79.5928 13.2448C80.0535 14.0874 80.2838 15.0157 80.2838 16.0298C80.2838 18.0366 79.6582 19.6482 78.4038 20.8553C77.1525 22.0655 75.3379 22.6691 72.9629 22.6691H62.8749V0H72.4369ZM73.0968 18.3645C74.0212 18.3645 74.7122 18.1469 75.1729 17.718C75.6336 17.286 75.8639 16.6702 75.8639 15.8705C75.8639 15.0709 75.6118 14.4244 75.1044 13.9924C74.6002 13.5819 73.9278 13.3766 73.0937 13.3766H67.2917V18.3645H73.0968ZM75.3067 6.67297C75.3067 5.87332 75.0546 5.27894 74.5473 4.8929C74.043 4.5038 73.3707 4.31078 72.5365 4.31078H67.2949V9.07193H72.5365C73.3707 9.07193 74.043 8.86666 74.5473 8.45611C75.0515 8.04556 75.3067 7.45118 75.3067 6.67604V6.67297Z" fill="#232424"/>
<path d="M96.871 18.3645V22.6722H82.8237V0H87.2405V18.3645H96.871Z" fill="#232424"/>
<path d="M112.406 9.06887V13.3766H102.779V18.3645H112.406V22.6722H98.3588V0H112.406V4.30771H102.779V9.06887H112.406Z" fill="#232424"/>
<path d="M124.246 0C126.6 0 128.402 0.594379 129.653 1.78007C130.907 2.96883 131.533 4.54363 131.533 6.50753C131.533 7.45731 131.368 8.3213 131.038 9.09951C130.686 9.89916 130.157 10.5579 129.457 11.0757C130.269 11.6792 130.92 12.4023 131.402 13.2448C131.863 14.0874 132.093 15.0157 132.093 16.0298C132.093 18.0366 131.468 19.6482 130.213 20.8553C128.959 22.0655 127.147 22.6691 124.772 22.6691H114.685V0H124.246ZM124.903 18.3645C125.828 18.3645 126.519 18.1469 126.979 17.718C127.44 17.286 127.67 16.6702 127.67 15.8705C127.67 15.0709 127.418 14.4244 126.911 13.9924C126.404 13.5819 125.734 13.3766 124.9 13.3766H119.098V18.3645H124.903ZM127.113 6.67297C127.113 5.87332 126.861 5.27894 126.354 4.8929C125.846 4.5038 125.177 4.31078 124.343 4.31078H119.101V9.07193H124.343C125.177 9.07193 125.849 8.86666 126.354 8.45611C126.858 8.04556 127.113 7.45118 127.113 6.67604V6.67297Z" fill="#232424"/>
<path d="M148.677 9.06887V13.3766H139.05V18.3645H148.677V22.6722H134.63V0H148.677V4.30771H139.05V9.06887H148.677Z" fill="#232424"/>
<path d="M165 9.06887V13.3766H155.373V18.3645H165V22.6722H150.956V0H165V4.30771H155.373V9.06887H165Z" fill="#232424"/>
</g>
</svg>
