<svg width="58" height="25" viewBox="0 0 58 25" fill="none" xmlns="http://www.w3.org/2000/svg">
<g id="mkmedia" clip-path="url(#clip0_799_473)">
<g id="Lager 2">
<g id="Lager 1-2">
<path id="Vector" d="M28.3075 -0.000346374C26.7678 -0.00137144 25.2431 0.297842 23.8209 0.880123C22.3986 1.4624 21.1068 2.31629 20.0196 3.39278C18.3799 1.77162 16.2899 0.667354 14.0143 0.219797C11.7386 -0.22776 9.37968 0.00151956 7.23608 0.878606C5.09249 1.75569 3.26066 3.24114 1.97254 5.14687C0.684415 7.05259 -0.00206886 9.29289 4.68356e-06 11.5841V21.5991C4.67682e-06 22.0456 0.0890817 22.4878 0.26215 22.9004C0.435218 23.313 0.688888 23.6879 1.00868 24.0036C1.32846 24.3194 1.70811 24.5699 2.12593 24.7408C2.54376 24.9117 2.99158 24.9997 3.44383 24.9997C3.89607 24.9997 4.3439 24.9117 4.76172 24.7408C5.17954 24.5699 5.55919 24.3194 5.87897 24.0036C6.19876 23.6879 6.45243 23.313 6.6255 22.9004C6.79857 22.4878 6.88765 22.0456 6.88765 21.5991V11.5841C6.88765 10.3155 7.398 9.09887 8.30644 8.20183C9.21487 7.3048 10.447 6.80085 11.7317 6.80085C13.0164 6.80085 14.2485 7.3048 15.157 8.20183C16.0654 9.09887 16.5758 10.3155 16.5758 11.5841V21.5991C16.5758 22.5009 16.9386 23.3659 17.5844 24.0036C18.2303 24.6414 19.1062 24.9997 20.0196 24.9997C20.9329 24.9997 21.8089 24.6414 22.4547 24.0036C23.1006 23.3659 23.4634 22.5009 23.4634 21.5991V11.5841C23.4634 10.3155 23.9738 9.09887 24.8822 8.20183C25.7906 7.3048 27.0227 6.80085 28.3075 6.80085C29.5922 6.80085 30.8243 7.3048 31.7327 8.20183C32.6412 9.09887 33.1515 10.3155 33.1515 11.5841V21.5991C33.1515 22.5009 33.5143 23.3659 34.1602 24.0036C34.806 24.6414 35.682 24.9997 36.5953 24.9997C37.5087 24.9997 38.3846 24.6414 39.0305 24.0036C39.6763 23.3659 40.0392 22.5009 40.0392 21.5991V11.5841C40.0372 8.51233 38.8005 5.56693 36.6008 3.39485C34.4011 1.22277 31.4183 0.0016335 28.3075 -0.000346374Z" fill="#232424"/>
<path id="Vector_2" d="M56.9934 19.1629L50.2495 12.5037L56.9934 5.84454C57.6397 5.20628 58.0029 4.34061 58.0029 3.43797C58.0029 2.53533 57.6397 1.66965 56.9934 1.03139C56.347 0.393126 55.4703 0.0345535 54.5562 0.0345535C53.6421 0.0345535 52.7654 0.393126 52.119 1.03139L42.938 10.0972C42.2933 10.7348 41.9311 11.599 41.9311 12.5C41.9311 13.401 42.2933 14.2652 42.938 14.9028L52.119 23.9761C52.7654 24.6143 53.6421 24.9729 54.5562 24.9729C55.4703 24.9729 56.347 24.6143 56.9934 23.9761C57.6397 23.3378 58.0029 22.4721 58.0029 21.5695C58.0029 20.6669 57.6397 19.8012 56.9934 19.1629Z" fill="#232424"/>
</g>
</g>
</g>
<defs>
<clipPath id="clip0_799_473">
<rect width="58" height="25" fill="white"/>
</clipPath>
</defs>
</svg>
