<svg width="117" height="25" viewBox="0 0 117 25" fill="none" xmlns="http://www.w3.org/2000/svg">
<path id="Polestar" d="M26.6219 24.9812C25.2957 24.9812 24.0865 24.7553 23.0138 24.3035C21.9412 23.8517 21.0245 23.2304 20.2639 22.4209C19.5033 21.6114 18.9377 20.6325 18.5281 19.503C18.138 18.3735 17.9235 17.131 17.9235 15.7756C17.9235 14.4202 18.1185 13.1965 18.5281 12.067C18.9377 10.9375 19.5033 9.97741 20.2639 9.1491C21.005 8.32078 21.9217 7.69955 23.0138 7.24774C24.0865 6.79593 25.2957 6.57003 26.6219 6.57003C27.9482 6.57003 29.1964 6.79593 30.269 7.24774C31.3417 7.69955 32.2779 8.33961 33.019 9.1491C33.7796 9.97741 34.3647 10.9375 34.7548 12.067C35.1644 13.1965 35.3594 14.4202 35.3594 15.7756C35.3594 17.131 35.1644 18.3735 34.7548 19.503C34.3452 20.6325 33.7601 21.6114 33.019 22.4209C32.2584 23.2304 31.3417 23.8517 30.23 24.3035C29.1769 24.7553 27.9677 24.9812 26.6219 24.9812ZM46.7883 16.7357C46.8273 17.5828 47.0028 18.3735 47.2759 19.0889C47.5684 19.7854 47.939 20.4066 48.4071 20.9149C48.8751 21.4232 49.4407 21.8185 50.0453 22.1009C50.6694 22.3833 51.3326 22.5339 52.0932 22.5339C53.2634 22.5339 54.258 22.2703 55.0772 21.762C55.8963 21.2349 56.6374 20.3125 56.8325 19.0889H60.226C59.8165 21.2349 58.8413 22.6092 57.3396 23.5693C55.8378 24.5294 54.063 25 51.9762 25C49.2067 25 47.0808 24.1905 45.6181 22.5527C44.1554 20.9149 43.4142 18.6747 43.4142 15.7944C43.4142 14.4955 43.6093 13.2718 44.0188 12.1611C44.4284 11.0505 44.994 10.0527 45.7546 9.2244C46.5153 8.39608 47.4124 7.75602 48.4851 7.28539C49.5383 6.83358 50.728 6.58885 52.0542 6.58885C54.8626 6.58885 56.93 7.47364 58.2562 9.24322C59.5824 11.0128 60.226 13.5166 60.226 16.7545L46.7883 16.7357ZM64.7898 19.07C64.8288 20.1995 65.2384 21.0655 65.999 21.6491C66.8181 22.2703 67.9688 22.5715 69.4511 22.5715C70.6798 22.5715 71.6354 22.3645 72.2985 21.9126C72.9617 21.4797 73.2932 20.8208 73.2932 19.9736C73.2932 19.4277 73.1762 18.9947 72.9031 18.6747C72.6496 18.3547 72.2985 18.0723 71.8695 17.8652C71.4404 17.6581 70.9528 17.4887 70.3872 17.3569C69.8216 17.244 69.256 17.1122 68.6514 16.9992C67.8713 16.8675 67.0717 16.698 66.272 16.5286C65.4919 16.3404 64.7703 16.0768 64.1267 15.7003C63.4831 15.3238 62.9565 14.8155 62.5469 14.1755C62.1374 13.5166 61.9423 12.6694 61.9423 11.6152C61.9423 10.881 62.1179 10.1845 62.4494 9.56325C62.781 8.94202 63.2685 8.41491 63.8731 7.9631C64.4972 7.51129 65.2384 7.17244 66.0965 6.92771C66.9547 6.68298 67.9298 6.5512 69.0025 6.5512C71.2844 6.5512 73.0397 7.04066 74.2879 8.0384C75.5361 9.03614 76.1602 10.4857 76.1797 12.387H73.0007C72.9812 10.1092 71.6159 8.97967 68.9245 8.97967C67.8128 8.97967 66.9156 9.18675 66.272 9.63855C65.6089 10.0715 65.2969 10.6739 65.2969 11.4081C65.2969 11.8976 65.4139 12.3117 65.6674 12.6318C65.921 12.9518 66.233 13.2154 66.6231 13.4036C67.0132 13.5919 67.4812 13.7613 68.0273 13.8931C68.5734 14.0248 69.139 14.1378 69.7436 14.2508C70.5238 14.4014 71.3624 14.5896 72.1815 14.7779C73.0007 14.9661 73.7613 15.2485 74.4244 15.6438C75.0875 16.0203 75.6336 16.5474 76.0627 17.2063C76.4917 17.8652 76.7063 18.7312 76.7063 19.8042C76.7063 20.5949 76.5112 21.3102 76.1407 21.9503C75.7701 22.5904 75.263 23.1363 74.5999 23.5881C73.9368 24.0399 73.1762 24.3788 72.279 24.6235C71.3819 24.8682 70.4067 25 69.3731 25C66.8571 25 64.9263 24.4729 63.5806 23.4187C62.2739 22.4021 61.5913 20.9526 61.5328 19.0889L64.7898 19.07ZM92.2894 12.4247H89.1103C89.1103 11.5211 89.2859 10.7116 89.6564 9.99623C90.0075 9.28087 90.5146 8.65964 91.1777 8.17018C91.8213 7.6619 92.6014 7.26657 93.4986 6.98419C94.3957 6.70181 95.3904 6.5512 96.4826 6.5512C98.1794 6.5512 99.5056 6.79593 100.461 7.28539C101.417 7.77485 102.119 8.41491 102.587 9.16792C103.055 9.92093 103.348 10.7869 103.445 11.7093C103.543 12.6318 103.601 13.5542 103.601 14.4202V19.183C103.601 20.1995 103.64 21.122 103.699 21.988C103.757 22.8351 103.874 23.6634 104.069 24.4541H101.066C101.027 24.2093 100.968 23.9081 100.929 23.5316C100.89 23.1551 100.851 22.6845 100.832 22.1009C100.071 23.0986 99.174 23.7952 98.1794 24.2093C97.1847 24.6235 96.034 24.8306 94.7273 24.8306C92.7185 24.8306 91.1777 24.3411 90.105 23.3622C89.0323 22.3833 88.4862 21.122 88.4862 19.5783C88.4862 18.637 88.6813 17.8464 89.0518 17.2063C89.4419 16.5663 89.949 16.0392 90.5926 15.625C91.2362 15.2108 91.9773 14.8908 92.816 14.6461C93.6546 14.4014 94.5127 14.2319 95.4099 14.1002C96.2875 13.9872 97.1847 13.8931 98.0623 13.8178C98.94 13.7613 99.7591 13.6672 100.5 13.573V12.9706C100.5 11.6717 100.188 10.6551 99.5446 9.95858C98.9205 9.26205 97.9063 8.88554 96.5021 8.88554C95.2344 8.88554 94.2202 9.18675 93.4596 9.77033C92.6794 10.3727 92.2894 11.2575 92.2894 12.4247ZM80.3144 7.07831V2.86145H83.5324V7.07831H87.4526V9.63855H83.5324V18.2982C83.5324 18.9006 83.5519 19.4465 83.5909 19.936C83.6299 20.4255 83.7079 20.8208 83.8445 21.1596C83.981 21.4797 84.1955 21.7432 84.4881 21.8938C84.7806 22.0633 85.1902 22.1386 85.6973 22.1386C85.9508 22.1386 86.2239 22.1386 86.5164 22.1197C86.809 22.1009 87.1405 22.0632 87.5111 21.9691V24.4729C86.5554 24.68 85.6778 24.7741 84.8586 24.7741C84.1565 24.7741 83.5324 24.68 82.9668 24.5294C82.4012 24.3599 81.9136 24.0776 81.5431 23.7011C81.153 23.3245 80.8605 22.7974 80.6459 22.1386C80.4314 21.4797 80.3339 20.689 80.3339 19.7477V9.63855H77.0183V7.07831H80.3144ZM3.41307 24.4729H0V0H7.68428C8.75696 0 9.86864 0.0376506 11.0388 0.131777C12.209 0.225904 13.3402 0.527108 14.4519 1.07304C15.5636 1.65663 16.4022 2.50377 16.9873 3.61446C17.5724 4.72515 17.8455 5.98645 17.8455 7.37952C17.8455 8.86672 17.5334 10.128 16.9288 11.1634C16.3047 12.1988 15.4661 13.0271 14.4324 13.6483C13.7108 14.0437 12.7746 14.3449 11.6044 14.5331C10.4342 14.7214 9.06901 14.8155 7.48925 14.8155H3.41307V24.4729ZM41.0153 24.4729H37.7973V0H41.0153V24.4729ZM110.096 24.4729H106.878V7.07831H109.92V9.63855C110.622 8.58434 111.383 7.85015 112.222 7.47364C113.06 7.07831 113.977 6.89006 114.972 6.89006C115.654 6.89006 116.317 6.94654 117 7.09714V9.82681C116.61 9.77033 116.239 9.71385 115.888 9.65738C115.537 9.61973 115.206 9.6009 114.874 9.6009C113.899 9.6009 113.099 9.77033 112.475 10.0904C111.851 10.4104 111.364 10.881 111.012 11.4646C110.661 12.0482 110.408 12.7824 110.291 13.6295C110.154 14.4767 110.076 15.4367 110.076 16.491V24.4729H110.096ZM100.461 15.9827C99.7786 16.0768 98.94 16.1521 97.9453 16.1898C96.9507 16.2462 95.9755 16.378 95.0393 16.6227C94.1032 16.8486 93.323 17.1875 92.6599 17.6581C91.9968 18.1099 91.6848 18.7876 91.6848 19.6724C91.6848 20.5572 92.0163 21.2349 92.6794 21.7809C93.3426 22.3268 94.2592 22.6092 95.4294 22.6092C96.073 22.6092 96.7166 22.5339 97.3212 22.3645C97.9258 22.2139 98.4524 21.9126 98.94 21.4985C99.4081 21.0843 99.7786 20.5196 100.052 19.7854C100.344 19.0512 100.461 18.1099 100.461 16.9804V15.9827ZM26.6024 22.5151C27.4411 22.5151 28.2017 22.3456 28.8843 22.0256C29.5669 21.7056 30.152 21.2349 30.6201 20.6514C31.0882 20.0678 31.4392 19.3712 31.6928 18.5429C31.9463 17.7146 32.0828 16.811 32.0828 15.7944C32.0828 14.7779 31.9658 13.8742 31.6928 13.0459C31.4392 12.2176 31.0687 11.5211 30.5811 10.9187C30.113 10.3163 29.5279 9.86446 28.8648 9.54443C28.2017 9.2244 27.4411 9.05497 26.6219 9.05497C25.8028 9.05497 25.0617 9.20557 24.3986 9.5256C23.7355 9.84563 23.1699 10.2786 22.7018 10.881C22.2337 11.4646 21.8826 12.1611 21.6291 12.9895C21.3756 13.8178 21.239 14.7214 21.239 15.738C21.239 16.7545 21.3561 17.677 21.6096 18.5053C21.8631 19.3336 22.2142 20.0489 22.6823 20.6514C23.1504 21.2538 23.716 21.7056 24.3791 22.0256C25.0422 22.3645 25.7833 22.5151 26.6024 22.5151ZM51.9177 9.05497C50.5524 9.05497 49.4212 9.48795 48.5241 10.3163C47.6464 11.1634 47.0808 12.4623 46.8468 14.2131H56.7935C56.5984 12.4623 56.0718 11.1634 55.1747 10.3163C54.3165 9.48795 53.2049 9.05497 51.9177 9.05497ZM7.8208 2.69202H3.41307V12.1423H7.8208C8.69845 12.1423 9.51759 12.1047 10.2197 12.0294C10.9413 11.9541 11.5069 11.8223 11.897 11.634C12.6771 11.2575 13.2817 10.6739 13.6913 9.92093C14.1008 9.16792 14.2959 8.32078 14.2959 7.39834C14.2959 6.4759 14.1008 5.64759 13.6913 4.89458C13.2817 4.14157 12.6771 3.57681 11.897 3.18148C11.5069 2.9744 10.9413 2.84262 10.2197 2.78614C9.49808 2.71084 8.69845 2.69202 7.8208 2.69202Z" fill="black"/>
</svg>
