<svg width="101" height="30" viewBox="0 0 101 30" fill="none" xmlns="http://www.w3.org/2000/svg">
<g id="raket 1" clip-path="url(#clip0_878_3704)">
<g id="Group">
<path id="Vector" d="M21.2872 21.9646L21.3712 29.6707H15.8925L15.8085 22.5827C15.697 21.4838 15.2788 20.5909 14.5539 19.9041C13.8569 19.1898 12.9647 18.8326 11.8773 18.8326H5.56226V29.6707H0V0.824185H12.0028C15.0139 0.824185 17.3838 1.64837 19.1124 3.29674C20.8411 4.91764 21.7054 7.06052 21.7054 9.72539C21.7054 12.5276 20.395 14.6018 17.7741 15.948C19.8931 17.2667 21.0641 19.2722 21.2872 21.9646ZM5.56226 5.39842V14.1348H11.7518C13.2853 14.1348 14.4284 13.7227 15.1812 12.8985C15.9619 12.0469 16.3522 10.9891 16.3522 9.72539C16.3522 8.46164 15.9619 7.43141 15.1812 6.6347C14.4284 5.81051 13.2853 5.39842 11.7518 5.39842H5.56226ZM33.3116 8.57153C36.016 8.57153 38.2047 9.28583 39.8776 10.7144C41.5783 12.1155 42.4287 13.9837 42.4287 16.3189V29.6707H37.3683V26.58C36.9222 27.624 36.1276 28.4619 34.9844 29.0938C33.8692 29.6982 32.5588 30.0004 31.0532 30.0004C28.99 30.0004 27.3032 29.4234 25.9928 28.2696C24.6824 27.0882 24.0272 25.591 24.0272 23.7778C24.0272 21.7722 24.7521 20.1788 26.2019 18.9975C27.6517 17.8161 29.5616 17.2255 31.9315 17.2255H35.8209C36.8525 17.2255 37.3683 16.7584 37.3683 15.8244C37.3683 14.8079 36.9779 13.9837 36.1973 13.3518C35.4445 12.6925 34.3989 12.3628 33.0606 12.3628C31.7502 12.3628 30.6908 12.7062 29.8822 13.393C29.1015 14.0798 28.6833 14.9178 28.6276 15.9068H24.0272C24.1666 13.7914 25.0727 12.0469 26.7456 10.6732C28.4463 9.27209 30.635 8.57153 33.3116 8.57153ZM32.266 26.2503C33.8553 26.2503 35.096 25.7558 35.9882 24.7668C36.9082 23.7778 37.3683 22.4865 37.3683 20.8931V20.5634H32.6424C31.5551 20.5634 30.6768 20.8382 30.0077 21.3876C29.3385 21.9371 29.004 22.6651 29.004 23.5717C29.004 24.3684 29.2967 25.014 29.8822 25.5085C30.4956 26.0031 31.2902 26.2503 32.266 26.2503ZM60.149 29.6707L53.583 20.3986L51.0737 22.7887V29.6707H45.9296V0H51.0737V16.4837L59.1452 8.90121H65.6694L57.096 17.0606L66.3804 29.6707H60.149Z" fill="#1B1B1B"/>
<path id="Vector_2" d="M81.3709 22.7475H86.3894C85.9991 24.9454 84.8978 26.7036 83.0856 28.0223C81.2733 29.341 79.0707 30.0004 76.4777 30.0004C73.1878 30.0004 70.567 28.9289 68.6153 26.786C66.6915 24.6432 65.7296 22.1157 65.7296 19.2035C65.7296 16.2639 66.6357 13.7639 68.448 11.7034C70.2603 9.6155 72.7975 8.57153 76.0595 8.57153C79.3774 8.57153 81.9145 9.56056 83.6711 11.5386C85.4276 13.5166 86.3058 15.8656 86.3058 18.5854C86.3058 19.1898 86.2779 19.7667 86.2222 20.3162H70.6646C70.8597 21.992 71.4731 23.3245 72.5047 24.3135C73.5363 25.3025 74.8607 25.797 76.4777 25.797C79.1822 25.797 80.8133 24.7805 81.3709 22.7475ZM76.0595 12.3628C73.0763 12.3628 71.3198 13.9013 70.79 16.9782H81.1618C81.0502 15.6046 80.5344 14.4919 79.6144 13.6403C78.7222 12.7886 77.5372 12.3628 76.0595 12.3628ZM88.9957 4.36194H94.1397V22.2118C94.1397 24.3272 95.1574 25.3849 97.1927 25.3849H99.9947V29.6707H96.6072C94.2652 29.6707 92.4111 29.0388 91.0449 27.7751C89.6788 26.4838 88.9957 24.6981 88.9957 22.4179V4.36194Z" fill="#1B1B1B"/>
<path id="Vector_3" d="M94.4734 14.3555C94.4734 11.3136 96.9508 8.84766 100.002 8.84766V14.3555H94.4734Z" fill="#1B1B1B"/>
</g>
</g>
<defs>
<clipPath id="clip0_878_3704">
<rect width="101" height="30" fill="white"/>
</clipPath>
</defs>
</svg>
