<svg width="195" height="23" viewBox="0 0 195 23" fill="none" xmlns="http://www.w3.org/2000/svg">
<g id="Stendahls">
<path d="M76.5978 12.9171V0.614806L76.7954 0.418682H81.3849L81.5825 0.614806V22.4826C81.2501 22.8392 80.6484 22.6386 80.2083 22.6743L67.1583 10.051V22.5495H62.3038V0.418682L64.0822 0.543488L76.5978 12.9171Z" fill="#232424"/>
<path d="M87.7482 22.6788V0.418682H97.6502C98.1172 0.418682 99.3701 0.784186 99.8821 0.935736C108.85 3.64136 109.78 17.1873 101.607 21.3995C97.4975 23.5167 92.2254 22.389 87.7482 22.6788ZM92.4679 4.71558V18.1902L92.6655 18.3863H96.5994C102.707 18.3863 104.49 8.56674 99.3252 5.52682C98.9076 5.28167 97.5559 4.72004 97.1203 4.72004H92.4634L92.4679 4.71558Z" fill="#232424"/>
<path d="M139.683 0.418682V8.88322H148.207V0.418682H153.061V22.6788H148.207V13.1757H139.683V22.4871L139.486 22.6788H134.829V0.418682H139.683Z" fill="#232424"/>
<path d="M12.8611 6.79717C12.5917 3.47643 5.83319 3.45415 5.08324 6.29795C4.20307 9.6276 9.32696 9.35124 11.3388 9.67663C15.7127 10.3809 18.5913 12.1059 18.0928 17.0001C17.2351 25.4111 -0.449307 24.9164 0.00874518 15.9125H4.40066C4.68357 16.3404 4.6207 16.7326 4.93505 17.2051C6.47087 19.514 13.665 19.6478 13.3911 15.8501C13.18 12.9528 8.59947 13.3762 6.53823 13.0107C2.58641 12.302 -0.134957 10.4522 0.273697 6.08399C1.01017 -1.78326 15.7711 -1.92143 17.262 5.22818C17.3159 5.48671 17.5405 6.79717 17.2531 6.79717H12.8611Z" fill="#232424"/>
<path d="M194.241 6.79717H189.849C189.588 6.47178 189.597 6.08845 189.368 5.71403C187.963 3.40957 181.707 3.82411 181.82 6.95764C181.887 8.84756 183.773 9.1462 185.277 9.38244C187.613 9.74795 190.029 9.68109 192.184 10.8578C195.925 12.9038 195.862 18.8945 192.449 21.2212C187.581 24.5419 176.691 23.3384 176.799 15.908H181.388C181.537 18.52 184.756 18.939 186.836 18.7786C188.093 18.6805 189.894 18.1679 190.145 16.7237C190.774 13.0509 186.732 13.4966 184.357 13.1578C179.915 12.5204 176.215 10.6171 177.226 5.46442C178.222 0.400853 184.424 -0.544109 188.713 0.374108C191.978 1.07391 194.349 3.33826 194.241 6.79717Z" fill="#232424"/>
<path d="M131.551 22.6788H126.633L124.644 18.9257L115.276 18.9836L113.583 22.6788H108.468L108.572 21.8051L118.959 0.0932944C119.489 0.0487208 120.997 -0.156318 121.307 0.23593L131.519 21.8631L131.551 22.6788ZM123.157 14.8695L120.077 7.57721L116.996 14.8695H123.162H123.157Z" fill="#232424"/>
<path d="M56.5333 0.418682V4.58632H47.4845V9.01248H55.8103L56.0079 9.2086V13.1133L55.8103 13.3094H47.4845V18.2526H56.7982V22.6788H42.4998V0.418682H56.5333Z" fill="#232424"/>
<path d="M37.6499 0.418682V4.58632H31.7446V22.4871L31.5515 22.6788H27.0248V4.58632H21.1869L20.9938 4.39019V0.418682H37.6499Z" fill="#232424"/>
<path d="M164.077 0.418682V18.3863H173.521V22.6788H159.222V0.418682H164.077Z" fill="#232424"/>
</g>
</svg>
