<svg width="104" height="25" viewBox="0 0 104 25" fill="none" xmlns="http://www.w3.org/2000/svg">
<g id="Variant">
<path d="M21.3333 23.5178C20.2533 22.5433 19.7169 21.2627 19.7169 19.6834C19.7169 18.1041 20.2235 16.9579 21.2663 16.0506C22.2756 15.1434 23.7616 14.6393 25.6834 14.4676L29.6611 14.1988C30.5028 14.1316 30.9423 13.6611 30.9423 12.8174C30.9423 11.9736 30.6741 11.3687 30.1006 10.9319C29.527 10.5287 28.7188 10.3271 27.743 10.3271C25.6536 10.3271 24.473 11.2007 24.2384 12.9182H20.0894C20.2905 10.9991 21.0317 9.48701 22.3501 8.44534C23.6648 7.40367 25.4525 6.89964 27.7803 6.89964C30.108 6.89964 31.959 7.47088 33.2775 8.61708C34.5587 9.75956 35.1993 11.477 35.1993 13.7321V20.8296H36.581V24.4624H34.8603C32.838 24.4624 31.7579 23.4506 31.6238 21.468C30.5773 23.8239 28.622 25 25.7244 25C23.8696 25 22.4209 24.496 21.3408 23.5215L21.3333 23.5178ZM29.7616 20.389C30.5698 19.6162 30.9758 18.6716 30.9758 17.5291V16.8571L26.5922 17.1931C24.8715 17.3275 24.0298 18.0668 24.0298 19.4482C24.0298 20.1202 24.2644 20.6243 24.7039 20.9939C25.1434 21.3635 25.784 21.5651 26.5922 21.5651C27.8734 21.5651 28.9199 21.1619 29.7616 20.389Z" fill="#232424"/>
<path d="M38.6294 11.7421C38.6294 10.3607 39.0019 9.28539 39.7765 8.54615C40.5177 7.8069 41.5978 7.43728 43.0466 7.43728H48.5736V11.07H42.9423V24.4586H38.6257V11.7421H38.6294Z" fill="#232424"/>
<path d="M52.8231 4.94698C52.0484 4.94698 51.4413 4.71177 50.9348 4.24134C50.4283 3.80451 50.1937 3.19967 50.1937 2.49029C50.1937 1.78091 50.4618 1.21341 50.9683 0.705645C51.4749 0.235215 52.0819 0 52.8231 0C53.5642 0 54.2048 0.235215 54.7114 0.705645C55.2179 1.20968 55.4525 1.78091 55.4525 2.49029C55.4525 3.19967 55.2179 3.80078 54.7114 4.24134C54.2048 4.71177 53.5978 4.94698 52.8231 4.94698ZM50.6667 7.43728H54.9832V24.4624H50.6667V7.43728Z" fill="#232424"/>
<path d="M58.4544 23.5178C57.3743 22.5433 56.838 21.2627 56.838 19.6834C56.838 18.1041 57.3445 16.9579 58.3873 16.0506C59.3967 15.1434 60.8827 14.6393 62.8045 14.4676L66.7821 14.1988C67.6238 14.1316 68.0633 13.6611 68.0633 12.8174C68.0633 11.9736 67.7952 11.3687 67.2216 10.9319C66.648 10.5287 65.8399 10.3271 64.8641 10.3271C62.7747 10.3271 61.594 11.2007 61.3594 12.9182H57.2104C57.4115 10.9991 58.1527 9.48701 59.4711 8.44534C60.7858 7.40367 62.5736 6.89964 64.9013 6.89964C67.229 6.89964 69.0801 7.47088 70.3985 8.61708C71.6797 9.75956 72.3203 11.477 72.3203 13.7321V20.8296H73.702V24.4624H71.9814C69.959 24.4624 68.879 23.4506 68.7449 21.468C67.6983 23.8239 65.743 25 62.8454 25C60.9907 25 59.5419 24.496 58.4618 23.5215L58.4544 23.5178ZM66.8827 20.389C67.6909 19.6162 68.0968 18.6716 68.0968 17.5291V16.8571L63.7132 17.1931C61.9926 17.3275 61.1508 18.0668 61.1508 19.4482C61.1508 20.1202 61.3855 20.6243 61.825 20.9939C62.2644 21.3635 62.905 21.5651 63.7132 21.5651C64.9944 21.5651 66.041 21.1619 66.8827 20.389Z" fill="#232424"/>
<path d="M87.378 14.4676C87.378 11.9101 86.3315 10.6332 84.2421 10.6332C82.9944 10.6332 81.9814 11.07 81.2775 11.9437C80.5363 12.851 80.1639 14.1988 80.1639 15.9797V24.4586H75.8473V7.43728H79.7579V9.92757C80.8715 7.90771 82.6927 6.89964 85.2886 6.89964C87.2775 6.89964 88.8603 7.50448 90.0075 8.68429C91.121 9.89397 91.6909 11.5442 91.6909 13.6649V24.4661H87.3743V14.4751L87.378 14.4676Z" fill="#232424"/>
<path d="M102.045 24.4586C100.056 24.4586 98.5028 23.921 97.4264 22.8756C96.3129 21.8339 95.7728 20.3853 95.7728 18.5036V11.0663H92.6704V7.43354H94.6592C95.568 7.43354 96.041 6.99671 96.041 6.08946V2.25508H99.9851V7.43728H103.557V11.07H100.086V19.8178C100.086 20.4898 100.421 20.8259 101.132 20.8259H104V24.4586H102.045Z" fill="#232424"/>
<path d="M8.09311 22.8159L0 0.907258H4.75233L11.2439 19.1719L17.6983 0.907258H22.5214L14.365 22.8233C13.8771 24.1301 12.6294 25 11.2291 25C9.82868 25 8.57728 24.1263 8.09311 22.8159Z" fill="#232424"/>
</g>
</svg>
