<svg width="277" height="24" viewBox="0 0 277 24" fill="none" xmlns="http://www.w3.org/2000/svg">
<path fill-rule="evenodd" clip-rule="evenodd" d="M126.809 23.6177C120.476 23.6177 119.286 20.1369 119.561 16.177H124.678C124.678 18.3607 124.779 20.1993 127.589 20.1993C127.928 20.2441 128.273 20.2088 128.597 20.0958C128.921 19.9828 129.218 19.795 129.464 19.5462C129.711 19.2973 129.902 18.9937 130.023 18.6574C130.144 18.321 130.192 17.9605 130.164 17.6021C130.164 15.8007 128.194 14.74 125.977 13.5456C123.127 12.0104 119.868 10.2566 119.868 6.42766C119.868 2.85161 121.699 0 127.93 0C132.91 0 135.381 2.08702 135.042 6.86947H130.062C130.062 5.15879 129.756 3.41837 127.691 3.41837C126.031 3.41837 125.049 4.27222 125.049 5.85496C125.049 7.75158 127.017 8.74675 129.233 9.86538C132.086 11.3083 135.347 12.9565 135.347 16.9981C135.347 22.9215 130.708 23.6177 126.809 23.6177ZM4.95441 0.382297H0L5.12115 24H10.3653L14.3601 6.72964H14.4237L18.0343 24H23.3716L28.4829 0.382297H23.7518L20.8775 16.9669H20.8139L17.3602 0.380808H11.6696L8.0223 16.9669H7.95871L4.95441 0.382297ZM42.0432 0.382297V9.83562H36.2819V0.380808H31.2512V23.9985H36.2805V13.4637H42.0432V23.997H47.0725V0.383784L42.0432 0.382297ZM51.025 24V0.380808H63.428V4.01041H55.7773V9.83414H62.8302V13.4637H55.7773V20.3659H63.6809V23.9955H51.0278L51.025 24ZM67.2363 24H72.065V14.2224H73.3099C76.7919 14.2224 76.7805 16.3243 76.765 18.9067L76.7636 19.0881V19.4213C76.6108 20.9684 76.7845 22.5318 77.2723 24H82.002C81.5569 23.0212 81.4594 18.5705 81.4594 17.0666C81.4594 12.9312 78.4961 12.5697 77.3642 12.4314L77.2723 12.421V12.3555C80.4024 11.8289 81.5526 9.57233 81.5526 6.56452C81.5526 2.54221 79.4443 0.382297 76.1517 0.382297H67.2363V24ZM74.1973 10.5868H72.0579V4.01041H74.1973C75.7306 4.01041 76.659 4.86277 76.659 7.11937C76.659 8.62179 76.1121 10.5868 74.1973 10.5868ZM85.4726 23.9985V0.383784H97.8756V4.01339H90.2264V9.83711H97.2793V13.4667H90.2264V20.3689H98.1286V23.9985H85.4726ZM111.08 0.382297V24H116.354V0.380808L111.08 0.382297ZM147.071 0.382297V24L151.854 23.9985V5.77761H151.919L156.213 23.9985H160.897L165.42 5.77761H165.485V24H170.273V0.380808H162.626L158.72 16.4433H158.655L154.978 0.380808L147.071 0.382297ZM178.773 15.8215L172.52 0.377834H177.98L181.551 10.3518L185.355 0.377834H190.451L183.767 15.82V23.9985H178.767V15.82L178.773 15.8215ZM209.751 0.380808H201.094V23.9985H205.902V14.3786H209.464C215.097 14.3786 215.861 10.1302 215.861 7.44663C215.861 3.13127 214.142 0.380808 209.751 0.380808ZM208.568 10.7519H205.892V4.01487H208.312C210.479 4.01487 210.986 5.6467 210.986 7.57902C210.986 9.14838 210 10.7519 208.568 10.7519ZM218.972 11.8081C218.972 5.76273 218.972 0 226.882 0C234.793 0 234.792 5.75678 234.792 11.8051V11.8081C234.792 17.7895 234.792 23.6177 226.882 23.6177C218.973 23.6177 218.972 17.7895 218.972 11.8081ZM229.932 11.8081C229.932 5.95463 229.58 3.42134 226.882 3.42134C224.183 3.42134 223.831 5.95463 223.831 11.8081C223.831 17.6631 224.183 20.1964 226.882 20.1964C229.581 20.1964 229.932 17.6631 229.932 11.8081ZM239.169 0.382297V24H243.855V6.72964H243.922L250.476 24H257.096V0.380808H252.406V16.7348H252.341L245.957 0.380808L239.169 0.382297ZM265.322 15.8215L259.07 0.380808H264.529L268.099 10.3563L271.904 0.382297H277L270.315 15.8215V23.9985H265.318V15.8215H265.322Z" fill="#121212"/>
</svg>
